<svg width="67" height="67" viewBox="0 0 67 67" fill="none" xmlns="http://www.w3.org/2000/svg">
<path d="M0.583415 33.4993C0.583413 51.6693 15.3301 66.416 33.5001 66.416C51.6701 66.416 66.4167 51.6693 66.4168 33.4993C66.4168 15.3293 51.6701 0.582678 33.5001 0.582677C15.3301 0.582675 0.583417 15.3293 0.583415 33.4993ZM33.5001 24.3156L33.5001 30.2077L43.3751 30.2077C45.1855 30.2077 46.6668 31.6889 46.6668 33.4993C46.6668 35.3098 45.1855 36.791 43.3751 36.791L33.5001 36.791L33.5001 42.6831C33.5001 44.1643 31.7226 44.8885 30.7022 43.8352L21.5184 34.6514C20.8601 33.9931 20.8601 32.9727 21.5184 32.3143L30.7022 23.1306C30.9342 22.9031 31.2284 22.7494 31.5477 22.6889C31.8669 22.6284 32.1969 22.6637 32.4961 22.7904C32.7954 22.9171 33.0504 23.1296 33.229 23.401C33.4077 23.6724 33.502 23.9907 33.5001 24.3156Z" fill="#E42353"/>
</svg>
