<svg width="795" height="856" viewBox="0 0 795 856" fill="none" xmlns="http://www.w3.org/2000/svg">
<g clip-path="url(#clip0_727_1943)">
<path d="M367.377 11.2782C276.116 21.1635 229.995 26.5303 205.867 47.5497C155.191 91.6857 185.481 140.321 131.328 199.528C87.8916 247.02 58.4638 226.601 -1.78275 277.248C-13.7047 287.266 -103.389 364.624 -92.2996 451.675C-84.7663 510.806 -37.7348 519.433 -40.8304 567.392C-44.9644 631.47 -130.671 643.014 -136.667 700.372C-142.779 758.807 -63.0286 834.638 23.0702 852.35C129.653 874.275 164.165 790.283 312.362 788.453C420.335 787.118 430.592 831.35 523.567 817.813C658.902 798.109 735.312 690.095 740.093 683.108C750.8 667.465 809.734 581.347 791.562 479.32C774.644 384.308 708.412 374.042 699.272 277.257C692.219 202.512 729.425 184.381 709.92 127.004C682.932 47.6165 588.585 14.3477 575.037 9.56229C530.905 -6.00447 475.791 -0.446956 367.387 11.2877L367.377 11.2782Z" fill="#5ED4CA"/>
<path d="M223.578 307.932C209.286 307.932 195.855 302.518 185.755 292.689C175.655 282.861 170.091 269.783 170.091 255.884C170.091 241.985 175.655 228.907 185.755 219.079C195.855 209.25 209.295 203.836 223.578 203.836C237.861 203.836 251.301 209.25 261.401 219.079C271.501 228.907 277.065 241.985 277.065 255.884C277.065 269.783 271.501 282.861 261.401 292.689C251.301 302.518 237.861 307.932 223.578 307.932ZM223.578 206.972C210.157 206.972 197.53 212.063 188.038 221.3C178.545 230.537 173.314 242.824 173.314 255.884C173.314 268.944 178.545 281.231 188.038 290.468C197.53 299.705 210.157 304.796 223.578 304.796C236.999 304.796 249.626 299.705 259.119 290.468C268.611 281.231 273.843 268.944 273.843 255.884C273.843 242.824 268.611 230.537 259.119 221.3C249.626 212.063 236.999 206.972 223.578 206.972Z" fill="white"/>
<path d="M189.683 590.221C165.565 590.221 145.943 571.127 145.943 547.658C145.943 524.189 165.565 505.095 189.683 505.095C213.802 505.095 233.423 524.189 233.423 547.658C233.423 571.127 213.802 590.221 189.683 590.221ZM189.683 508.25C167.348 508.25 149.176 525.933 149.176 547.668C149.176 569.402 167.348 587.085 189.683 587.085C212.019 587.085 230.191 569.402 230.191 547.668C230.191 525.933 212.019 508.25 189.683 508.25Z" fill="white"/>
<path d="M562.291 588.991C551.663 588.991 541.337 586.961 531.629 582.967C522.245 579.106 513.82 573.577 506.59 566.542C499.361 559.507 493.679 551.309 489.711 542.177C485.607 532.73 483.52 522.683 483.52 512.34C483.52 501.997 485.607 491.949 489.711 482.503C493.679 473.37 499.361 465.172 506.59 458.137C513.82 451.102 522.245 445.573 531.629 441.713C541.337 437.718 551.663 435.688 562.291 435.688C572.92 435.688 583.246 437.718 592.954 441.713C602.338 445.573 610.763 451.102 617.993 458.137C625.222 465.172 630.904 473.37 634.871 482.503C638.976 491.949 641.063 501.997 641.063 512.34C641.063 522.683 638.976 532.73 634.871 542.177C630.904 551.309 625.222 559.507 617.993 566.542C610.763 573.577 602.338 579.106 592.954 582.967C583.246 586.961 572.92 588.991 562.291 588.991ZM562.291 438.824C542.111 438.824 523.146 446.469 508.873 460.358C494.6 474.247 486.743 492.703 486.743 512.34C486.743 531.977 494.6 550.432 508.873 564.321C523.136 578.201 542.111 585.855 562.291 585.855C582.472 585.855 601.437 578.21 615.71 564.321C629.973 550.442 637.84 531.977 637.84 512.34C637.84 492.703 629.983 474.247 615.71 460.358C601.437 446.469 582.472 438.824 562.291 438.824Z" fill="white"/>
<path d="M464.363 228.686L434.744 214.285L411.138 260.256L440.758 274.657L464.363 228.686Z" fill="#515151"/>
<path d="M463.857 223.474L439.873 211.812L414.222 261.765L438.207 273.427L463.857 223.474Z" fill="#222221"/>
<path d="M443.285 219.249L440.744 218.014L439.229 220.964L441.77 222.2L443.285 219.249Z" fill="#5ED4CA"/>
<path d="M440.843 223.989L438.302 222.753L436.786 225.703L439.328 226.939L440.843 223.989Z" fill="#5ED4CA"/>
<path d="M438.214 229.095L435.673 227.86L434.158 230.81L436.699 232.046L438.214 229.095Z" fill="#5ED4CA"/>
<path d="M435.599 234.197L433.058 232.962L431.543 235.912L434.084 237.148L435.599 234.197Z" fill="#5ED4CA"/>
<path d="M432.98 239.304L430.439 238.068L428.924 241.019L431.465 242.254L432.98 239.304Z" fill="#5ED4CA"/>
<path d="M430.365 244.406L427.824 243.17L426.309 246.121L428.85 247.357L430.365 244.406Z" fill="#5ED4CA"/>
<path d="M427.741 249.513L425.199 248.278L423.684 251.228L426.226 252.464L427.741 249.513Z" fill="#5ED4CA"/>
<path d="M425.121 254.624L422.58 253.389L421.065 256.339L423.606 257.575L425.121 254.624Z" fill="#5ED4CA"/>
<path d="M448.488 221.778L445.947 220.542L444.432 223.493L446.973 224.729L448.488 221.778Z" fill="#5ED4CA"/>
<path d="M446.055 226.532L443.513 225.296L441.998 228.246L444.539 229.482L446.055 226.532Z" fill="#5ED4CA"/>
<path d="M443.43 231.629L440.889 230.394L439.374 233.344L441.915 234.58L443.43 231.629Z" fill="#5ED4CA"/>
<path d="M440.802 236.736L438.26 235.5L436.745 238.451L439.287 239.686L440.802 236.736Z" fill="#5ED4CA"/>
<path d="M438.187 241.838L435.645 240.603L434.13 243.553L436.672 244.789L438.187 241.838Z" fill="#5ED4CA"/>
<path d="M435.568 246.945L433.027 245.709L431.512 248.659L434.053 249.895L435.568 246.945Z" fill="#5ED4CA"/>
<path d="M432.952 252.047L430.411 250.811L428.896 253.761L431.437 254.997L432.952 252.047Z" fill="#5ED4CA"/>
<path d="M430.324 257.153L427.783 255.918L426.268 258.868L428.809 260.104L430.324 257.153Z" fill="#5ED4CA"/>
<path d="M453.509 224.221L450.967 222.986L449.452 225.936L451.994 227.172L453.509 224.221Z" fill="#5ED4CA"/>
<path d="M451.085 228.965L448.543 227.729L447.028 230.68L449.57 231.916L451.085 228.965Z" fill="#5ED4CA"/>
<path d="M448.456 234.072L445.915 232.836L444.4 235.786L446.941 237.022L448.456 234.072Z" fill="#5ED4CA"/>
<path d="M445.841 239.174L443.3 237.938L441.785 240.889L444.326 242.124L445.841 239.174Z" fill="#5ED4CA"/>
<path d="M443.212 244.28L440.671 243.045L439.156 245.995L441.697 247.231L443.212 244.28Z" fill="#5ED4CA"/>
<path d="M440.597 249.383L438.056 248.147L436.541 251.097L439.082 252.333L440.597 249.383Z" fill="#5ED4CA"/>
<path d="M437.968 254.499L435.427 253.263L433.912 256.213L436.453 257.449L437.968 254.499Z" fill="#5ED4CA"/>
<path d="M435.344 259.597L432.803 258.361L431.288 261.311L433.829 262.547L435.344 259.597Z" fill="#5ED4CA"/>
<path d="M458.661 226.722L456.12 225.487L454.605 228.437L457.146 229.673L458.661 226.722Z" fill="#5ED4CA"/>
<path d="M456.229 231.472L453.687 230.236L452.172 233.186L454.714 234.422L456.229 231.472Z" fill="#5ED4CA"/>
<path d="M453.613 236.574L451.072 235.338L449.557 238.289L452.098 239.524L453.613 236.574Z" fill="#5ED4CA"/>
<path d="M450.985 241.68L448.443 240.445L446.928 243.395L449.47 244.631L450.985 241.68Z" fill="#5ED4CA"/>
<path d="M448.369 246.783L445.828 245.547L444.313 248.497L446.854 249.733L448.369 246.783Z" fill="#5ED4CA"/>
<path d="M445.741 251.889L443.199 250.653L441.684 253.604L444.226 254.839L445.741 251.889Z" fill="#5ED4CA"/>
<path d="M443.125 256.991L440.584 255.756L439.069 258.706L441.61 259.942L443.125 256.991Z" fill="#5ED4CA"/>
<path d="M429.955 263.706L427.151 262.342L424.808 266.904L427.612 268.268L429.955 263.706Z" fill="#515151"/>
<path d="M440.497 262.098L437.956 260.862L436.441 263.813L438.982 265.048L440.497 262.098Z" fill="#5ED4CA"/>
<path d="M444.587 212.239L443.982 211.945L442.901 214.052L443.506 214.346L444.587 212.239Z" fill="#222221"/>
<path d="M445.002 213.149C446.403 213.149 447.539 212.044 447.539 210.68C447.539 209.317 446.403 208.211 445.002 208.211C443.6 208.211 442.464 209.317 442.464 210.68C442.464 212.044 443.6 213.149 445.002 213.149Z" fill="#515151"/>
<path d="M445.002 211.31C445.359 211.31 445.648 211.028 445.648 210.68C445.648 210.333 445.359 210.051 445.002 210.051C444.644 210.051 444.355 210.333 444.355 210.68C444.355 211.028 444.644 211.31 445.002 211.31Z" fill="#222221"/>
<path d="M477.576 251.986L455.265 241.138L437.479 275.776L459.79 286.624L477.576 251.986Z" fill="#515151"/>
<path d="M477.203 248.063L459.134 239.277L439.81 276.909L457.88 285.694L477.203 248.063Z" fill="#222221"/>
<path d="M461.71 244.889L459.791 243.956L458.652 246.173L460.571 247.106L461.71 244.889Z" fill="#5ED4CA"/>
<path d="M459.87 248.458L457.951 247.525L456.812 249.742L458.732 250.675L459.87 248.458Z" fill="#5ED4CA"/>
<path d="M457.902 252.306L455.983 251.373L454.844 253.59L456.763 254.523L457.902 252.306Z" fill="#5ED4CA"/>
<path d="M455.92 256.149L454.001 255.216L452.863 257.433L454.782 258.366L455.92 256.149Z" fill="#5ED4CA"/>
<path d="M453.943 259.992L452.024 259.059L450.885 261.276L452.805 262.21L453.943 259.992Z" fill="#5ED4CA"/>
<path d="M451.97 263.849L450.051 262.916L448.913 265.133L450.832 266.066L451.97 263.849Z" fill="#5ED4CA"/>
<path d="M449.993 267.683L448.074 266.75L446.936 268.967L448.855 269.9L449.993 267.683Z" fill="#5ED4CA"/>
<path d="M448.02 271.539L446.101 270.606L444.963 272.823L446.882 273.756L448.02 271.539Z" fill="#5ED4CA"/>
<path d="M465.622 246.793L463.703 245.859L462.565 248.076L464.484 249.01L465.622 246.793Z" fill="#5ED4CA"/>
<path d="M463.792 250.366L461.873 249.433L460.734 251.65L462.653 252.583L463.792 250.366Z" fill="#5ED4CA"/>
<path d="M461.81 254.218L459.891 253.285L458.753 255.502L460.672 256.435L461.81 254.218Z" fill="#5ED4CA"/>
<path d="M459.842 258.057L457.923 257.124L456.784 259.341L458.703 260.274L459.842 258.057Z" fill="#5ED4CA"/>
<path d="M457.86 261.909L455.941 260.976L454.803 263.193L456.722 264.126L457.86 261.909Z" fill="#5ED4CA"/>
<path d="M455.893 265.752L453.974 264.819L452.835 267.036L454.754 267.97L455.893 265.752Z" fill="#5ED4CA"/>
<path d="M453.924 269.591L452.005 268.658L450.867 270.875L452.786 271.808L453.924 269.591Z" fill="#5ED4CA"/>
<path d="M451.943 273.443L450.024 272.51L448.885 274.727L450.804 275.66L451.943 273.443Z" fill="#5ED4CA"/>
<path d="M469.423 248.629L467.504 247.696L466.365 249.913L468.284 250.846L469.423 248.629Z" fill="#5ED4CA"/>
<path d="M467.573 252.208L465.654 251.274L464.516 253.492L466.435 254.425L467.573 252.208Z" fill="#5ED4CA"/>
<path d="M465.601 256.054L463.681 255.121L462.543 257.338L464.462 258.272L465.601 256.054Z" fill="#5ED4CA"/>
<path d="M463.633 259.898L461.714 258.965L460.575 261.182L462.495 262.115L463.633 259.898Z" fill="#5ED4CA"/>
<path d="M461.66 263.745L459.741 262.812L458.603 265.029L460.522 265.962L461.66 263.745Z" fill="#5ED4CA"/>
<path d="M459.683 267.589L457.764 266.656L456.626 268.873L458.545 269.806L459.683 267.589Z" fill="#5ED4CA"/>
<path d="M457.71 271.445L455.791 270.512L454.653 272.729L456.572 273.662L457.71 271.445Z" fill="#5ED4CA"/>
<path d="M455.733 275.279L453.814 274.346L452.676 276.563L454.595 277.496L455.733 275.279Z" fill="#5ED4CA"/>
<path d="M473.299 250.517L471.38 249.584L470.242 251.801L472.161 252.734L473.299 250.517Z" fill="#5ED4CA"/>
<path d="M471.46 254.087L469.541 253.154L468.402 255.371L470.321 256.304L471.46 254.087Z" fill="#5ED4CA"/>
<path d="M469.487 257.943L467.568 257.01L466.429 259.227L468.349 260.16L469.487 257.943Z" fill="#5ED4CA"/>
<path d="M467.51 261.787L465.591 260.854L464.452 263.071L466.371 264.004L467.51 261.787Z" fill="#5ED4CA"/>
<path d="M465.537 265.634L463.618 264.7L462.479 266.918L464.399 267.851L465.537 265.634Z" fill="#5ED4CA"/>
<path d="M463.56 269.477L461.641 268.544L460.502 270.761L462.422 271.694L463.56 269.477Z" fill="#5ED4CA"/>
<path d="M461.591 273.325L459.672 272.392L458.534 274.609L460.453 275.542L461.591 273.325Z" fill="#5ED4CA"/>
<path d="M451.659 278.384L449.547 277.357L447.783 280.793L449.895 281.82L451.659 278.384Z" fill="#515151"/>
<path d="M459.61 277.168L457.691 276.235L456.552 278.452L458.472 279.385L459.61 277.168Z" fill="#5ED4CA"/>
<path d="M207.798 237.795L187.317 251.647L210.027 283.443L230.508 269.592L207.798 237.795Z" fill="#515151"/>
<path d="M204.077 236.233L187.49 247.451L212.162 281.995L228.749 270.776L204.077 236.233Z" fill="#222221"/>
<path d="M193.775 247.941L192.013 249.132L193.467 251.168L195.228 249.976L193.775 247.941Z" fill="#5ED4CA"/>
<path d="M196.127 251.229L194.365 252.42L195.819 254.455L197.581 253.264L196.127 251.229Z" fill="#5ED4CA"/>
<path d="M198.645 254.752L196.883 255.943L198.337 257.978L200.099 256.787L198.645 254.752Z" fill="#5ED4CA"/>
<path d="M201.165 258.28L199.403 259.472L200.857 261.507L202.618 260.315L201.165 258.28Z" fill="#5ED4CA"/>
<path d="M203.698 261.811L201.936 263.002L203.39 265.038L205.152 263.846L203.698 261.811Z" fill="#5ED4CA"/>
<path d="M206.208 265.34L204.446 266.531L205.9 268.566L207.661 267.375L206.208 265.34Z" fill="#5ED4CA"/>
<path d="M208.727 268.878L206.966 270.069L208.419 272.104L210.181 270.913L208.727 268.878Z" fill="#5ED4CA"/>
<path d="M211.26 272.409L209.499 273.6L210.952 275.635L212.714 274.444L211.26 272.409Z" fill="#5ED4CA"/>
<path d="M197.386 245.506L195.625 246.698L197.078 248.733L198.84 247.541L197.386 245.506Z" fill="#5ED4CA"/>
<path d="M199.723 248.786L197.962 249.978L199.415 252.013L201.177 250.821L199.723 248.786Z" fill="#5ED4CA"/>
<path d="M202.251 252.309L200.489 253.5L201.943 255.536L203.705 254.344L202.251 252.309Z" fill="#5ED4CA"/>
<path d="M204.776 255.845L203.014 257.037L204.468 259.072L206.23 257.881L204.776 255.845Z" fill="#5ED4CA"/>
<path d="M207.286 259.384L205.524 260.575L206.978 262.61L208.739 261.419L207.286 259.384Z" fill="#5ED4CA"/>
<path d="M209.813 262.906L208.052 264.098L209.505 266.133L211.267 264.942L209.813 262.906Z" fill="#5ED4CA"/>
<path d="M212.339 266.443L210.577 267.634L212.031 269.669L213.792 268.478L212.339 266.443Z" fill="#5ED4CA"/>
<path d="M214.848 269.971L213.087 271.163L214.54 273.198L216.302 272.007L214.848 269.971Z" fill="#5ED4CA"/>
<path d="M200.859 243.157L199.098 244.348L200.551 246.384L202.313 245.192L200.859 243.157Z" fill="#5ED4CA"/>
<path d="M203.206 246.437L201.445 247.628L202.898 249.664L204.66 248.472L203.206 246.437Z" fill="#5ED4CA"/>
<path d="M205.722 249.973L203.96 251.165L205.414 253.2L207.175 252.009L205.722 249.973Z" fill="#5ED4CA"/>
<path d="M208.249 253.496L206.488 254.688L207.941 256.723L209.703 255.532L208.249 253.496Z" fill="#5ED4CA"/>
<path d="M210.769 257.025L209.007 258.216L210.461 260.252L212.222 259.06L210.769 257.025Z" fill="#5ED4CA"/>
<path d="M213.292 260.556L211.531 261.747L212.984 263.782L214.746 262.591L213.292 260.556Z" fill="#5ED4CA"/>
<path d="M215.812 264.084L214.05 265.276L215.504 267.311L217.265 266.119L215.812 264.084Z" fill="#5ED4CA"/>
<path d="M218.331 267.613L216.57 268.804L218.023 270.839L219.785 269.648L218.331 267.613Z" fill="#5ED4CA"/>
<path d="M204.412 240.746L202.65 241.938L204.104 243.973L205.866 242.781L204.412 240.746Z" fill="#5ED4CA"/>
<path d="M206.773 244.028L205.011 245.22L206.465 247.255L208.226 246.063L206.773 244.028Z" fill="#5ED4CA"/>
<path d="M209.282 247.557L207.521 248.748L208.974 250.783L210.736 249.592L209.282 247.557Z" fill="#5ED4CA"/>
<path d="M211.802 251.085L210.041 252.277L211.494 254.312L213.256 253.121L211.802 251.085Z" fill="#5ED4CA"/>
<path d="M214.335 254.616L212.574 255.808L214.027 257.843L215.789 256.651L214.335 254.616Z" fill="#5ED4CA"/>
<path d="M216.845 258.145L215.083 259.336L216.537 261.371L218.299 260.18L216.845 258.145Z" fill="#5ED4CA"/>
<path d="M219.365 261.673L217.603 262.865L219.057 264.9L220.818 263.709L219.365 261.673Z" fill="#5ED4CA"/>
<path d="M219.176 272.574L217.238 273.885L219.491 277.04L221.43 275.728L219.176 272.574Z" fill="#515151"/>
<path d="M221.898 265.214L220.136 266.405L221.59 268.44L223.352 267.249L221.898 265.214Z" fill="#5ED4CA"/>
<path d="M548.508 427.042C553.014 420.179 558.079 412.562 558.079 412.562C558.079 412.562 551.427 406.709 544.864 400.456C538.918 401.104 534.147 401.619 528.201 402.267L531.247 428.91L548.498 427.042H548.508Z" fill="#515151"/>
<path d="M545.54 431.513C545.413 431.513 545.285 431.475 545.168 431.398C544.874 431.198 544.805 430.807 545.011 430.521L557.648 412.838L541.475 398.32C541.21 398.082 541.2 397.691 541.435 397.434C541.68 397.176 542.082 397.167 542.346 397.396L559.353 412.657L546.069 431.236C545.942 431.408 545.746 431.503 545.54 431.503V431.513Z" fill="#E42353"/>
<path d="M547.929 424.592L546.789 414.635L537.744 415.616L538.884 425.573L547.929 424.592Z" fill="#E42353"/>
<path d="M546.471 411.899L545.537 403.742L528.684 405.57L529.618 413.727L546.471 411.899Z" fill="#E42353"/>
<path d="M546.679 419.261L546.245 415.471L542.759 415.849L543.193 419.639L546.679 419.261Z" fill="#5ED4CA"/>
<path d="M547.186 423.782L546.752 419.992L543.267 420.37L543.701 424.16L547.186 423.782Z" fill="#5ED4CA"/>
<path d="M543.047 424.238L542.613 420.448L539.127 420.826L539.561 424.616L543.047 424.238Z" fill="#5ED4CA"/>
<path d="M542.539 419.707L542.105 415.917L538.62 416.296L539.054 420.085L542.539 419.707Z" fill="#5ED4CA"/>
<path d="M545.173 407.542L544.847 404.7L537.555 405.491L537.881 408.333L545.173 407.542Z" fill="#5ED4CA"/>
<path d="M545.589 411.122L545.251 408.176L537.959 408.967L538.297 411.913L545.589 411.122Z" fill="#5ED4CA"/>
<path d="M536.577 412.076C536.939 412.076 537.233 411.79 537.233 411.437C537.233 411.084 536.939 410.798 536.577 410.798C536.214 410.798 535.92 411.084 535.92 411.437C535.92 411.79 536.214 412.076 536.577 412.076Z" fill="#515151"/>
<path d="M150.313 554.188C149.95 562.319 149.49 571.385 149.49 571.385C149.49 571.385 158.257 573.196 167.152 575.417L180.642 565.722L164.272 544.16L150.313 554.197V554.188Z" fill="#515151"/>
<path d="M171.051 576.837C171.051 576.837 170.953 576.837 170.914 576.818L148.344 571.909L150.264 549.355C150.293 549.012 150.606 548.745 150.959 548.783C151.312 548.812 151.576 549.117 151.547 549.46L149.715 570.927L171.188 575.598C171.541 575.674 171.756 576.008 171.678 576.351C171.609 576.647 171.345 576.847 171.051 576.847V576.837Z" fill="#E42353"/>
<path d="M152.062 556.001L158.179 564.06L165.5 558.799L159.383 550.74L152.062 556.001Z" fill="#E42353"/>
<path d="M159.863 566.267L164.874 572.869L178.514 563.065L173.503 556.463L159.863 566.267Z" fill="#E42353"/>
<path d="M155.899 560.006L158.227 563.073L161.048 561.046L158.72 557.979L155.899 560.006Z" fill="#5ED4CA"/>
<path d="M153.119 556.344L155.447 559.411L158.268 557.383L155.94 554.316L153.119 556.344Z" fill="#5ED4CA"/>
<path d="M156.472 553.934L158.8 557.001L161.621 554.974L159.293 551.907L156.472 553.934Z" fill="#5ED4CA"/>
<path d="M159.246 557.599L161.574 560.666L164.395 558.638L162.067 555.571L159.246 557.599Z" fill="#5ED4CA"/>
<path d="M163.227 569.409L164.973 571.709L170.875 567.467L169.129 565.167L163.227 569.409Z" fill="#5ED4CA"/>
<path d="M161.03 566.514L162.84 568.899L168.742 564.657L166.932 562.272L161.03 566.514Z" fill="#5ED4CA"/>
<path d="M168.671 562.5C169.033 562.5 169.327 562.214 169.327 561.862C169.327 561.509 169.033 561.223 168.671 561.223C168.308 561.223 168.014 561.509 168.014 561.862C168.014 562.214 168.308 562.5 168.671 562.5Z" fill="#515151"/>
<path d="M332.435 634.109C443.156 634.109 532.914 546.767 532.914 439.024C532.914 331.282 443.156 243.939 332.435 243.939C221.713 243.939 131.956 331.282 131.956 439.024C131.956 546.767 221.713 634.109 332.435 634.109Z" fill="#0071BB"/>
<path d="M287.097 423.009C276.566 417.919 268.954 426.479 255.592 422.581C252.262 421.608 250.694 420.483 247.608 420.855C244.072 421.284 241.309 423.334 236.068 428.624C231.121 433.619 228.133 437.299 226.311 439.415C217.573 449.529 214.223 448.385 209.452 454.524C200.459 466.097 203.29 481.835 204.123 486.478C205.152 492.188 207.444 504.933 217.877 511.949C223.039 515.419 228.418 516.134 239.174 517.563C253.457 519.46 258.1 517.154 265.8 521.453C267.72 522.52 273.343 525.657 276.007 531.815C278.917 538.535 274.901 541.052 276.899 548.22C279.593 557.925 288.292 558.144 290.212 567.219C291.525 573.415 287.734 574.588 287.547 581.899C287.136 598.267 305.651 610.363 307.071 611.259C312.293 614.567 322.931 621.326 333.247 618.171C344.13 614.844 347.206 602.756 358.54 602.623C361.401 602.585 364.565 603.319 366.524 601.327C368.944 598.867 366.407 595.454 367.857 591.394C370.178 584.902 379.24 586.503 383.834 580.603C389.105 573.825 380.788 567.057 383.393 555.56C385.98 544.121 395.668 544.341 408.237 527.067C413.517 519.804 422.382 505.238 418.444 501.158C415.819 498.441 408.511 507.192 398.039 505.905C390.251 504.952 385.313 499.175 377.633 489.928C368.141 478.499 356.395 460.082 359.882 457.117C361.959 455.354 369.228 459.205 373.636 464.028C377.31 468.042 377.996 471.626 379.847 476.554C382.747 484.247 387.802 497.688 395.825 499.871C404.582 502.254 414.79 490.615 423.332 480.872C425.703 478.165 440.309 461.512 436.195 456.259C433.52 452.837 423.411 454.925 421.109 455.392C415.006 456.65 413.889 458.566 410.46 457.985C404.298 456.936 398.724 449.177 400.703 445.03C402.182 441.922 407.551 441.608 408.246 441.579C413.899 441.312 416.602 444.782 421.118 446.765C430.875 451.045 436.156 442.685 451.732 443.314C456.688 443.514 468.601 443.991 474.361 451.522C480.895 460.063 475.801 472.836 481.012 474.838C484.441 476.154 489.251 471.635 491.22 473.542C492.582 474.857 491.044 477.708 492.112 478.289C493.267 478.918 496.902 476.545 497.881 473.542C499.576 468.318 492.2 464.305 488.565 457.136C480.464 441.15 494.541 416.47 500.987 416.985C504.376 417.252 506.336 424.544 509.421 423.896C511.42 423.477 511.312 420.264 513.418 419.578C517.337 418.31 522.382 428.005 524.508 427.347C527.682 426.365 526.143 401.809 515.191 372.944C507.325 352.201 505.758 358.655 469.492 302.136C464.222 293.928 453.916 277.666 441.093 277.961C437.321 278.047 436.479 279.486 432.218 279.258C422.216 278.705 418.14 270.24 407.374 261.985C398.803 255.417 390.907 252.748 381.199 249.459C362.567 243.158 348.01 243.701 347.921 244.273C347.814 244.912 365.76 245.026 372.324 255.502C373.431 257.266 373.391 258.019 375.87 262.414C380.895 271.317 383.364 272.347 382.972 274.501C381.728 281.288 355.386 281.908 355.464 283.995C355.513 285.349 366.573 283.5 371.883 289.61C376.174 294.548 375.674 303.537 371.442 309.038C369.453 311.621 365.594 314.805 363.458 313.785C360.039 312.155 364.203 301.288 361.244 299.972C358.942 298.952 352.614 303.814 352.81 308.609C353.074 314.91 364.467 317.112 363.899 321.563C363.497 324.757 357.179 327.159 351.918 327.607C340.182 328.618 336.587 319.666 327.516 321.134C321.521 322.107 323.039 326.025 310.216 334.089C302.585 338.894 299.332 339.208 296.903 343.584C293.925 348.96 294.434 356.396 297.344 357.835C299.558 358.931 302.585 356.272 303.114 356.968C303.789 357.854 299.254 362.573 294.238 366.462C293.415 367.101 292.632 367.673 284.481 372.935C277.105 377.701 276.742 377.873 276.047 378.12C269.131 380.57 263.566 377.968 262.734 379.846C262.107 381.266 265.31 382.725 267.171 387.615C267.651 388.873 269.366 393.382 267.612 394.955C266.035 396.375 263.135 394.068 255.631 393.23C251.625 392.782 249.587 392.572 248.088 393.659C245.6 395.46 247.167 398.244 244.983 404.449C243.18 409.569 241.084 410.617 241.878 413.086C242.749 415.812 246.217 417.309 247.422 417.833C248.803 418.434 249.969 418.615 252.252 418.968C257.375 419.749 259.942 420.14 261.734 419.292C264.712 417.881 263.253 415.479 266.73 412.171C270.522 408.568 274.107 409.654 276.38 405.86C277.545 403.916 277.163 402.695 278.378 402.133C280.572 401.123 282.698 404.688 286.362 404.24C289.252 403.887 290.369 401.37 291.858 401.971C293.014 402.438 292.553 404.059 293.523 406.346C294.081 407.662 294.797 408.463 301.673 413.954C304.808 416.461 306.023 417.376 306.336 419.139C306.523 420.178 306.483 422.037 305.337 422.867C303.368 424.287 299.959 421.37 298.519 422.704C297.726 423.429 297.98 425.011 298.519 425.946C299.489 427.604 301.879 428.071 303.515 427.566C305.484 426.956 304.769 425.402 308.012 422.38C309.011 421.446 310.137 420.607 310.177 419.301C310.196 418.462 309.765 417.9 310.01 417.681C310.568 417.204 313.017 419.807 313.84 419.301C314.516 418.882 314.105 416.327 312.675 414.278C310.784 411.57 308.893 412.304 305.856 409.578C305.455 409.216 302.134 406.156 301.693 401.647C301.585 400.503 301.585 398.568 302.193 398.406C302.967 398.206 303.643 401.161 306.523 404.23C308.854 406.718 310.049 406.537 312.342 408.93C314.193 410.855 315.045 412.667 316.172 415.078C319.522 422.323 318.219 425.717 321.824 428.843C322.255 429.215 324.41 431.084 325.988 430.464C327.565 429.835 327.359 427.166 328.652 426.899C330.122 426.603 331.562 429.797 332.316 429.492C332.923 429.244 332.904 426.765 331.816 424.468C329.906 420.455 326.056 419.816 326.321 418.157C326.546 416.747 329.602 415.345 331.483 416.213C333.805 417.29 332.375 420.941 335.147 425.44C335.852 426.594 337.616 429.454 340.799 430.626C342.191 431.131 343.67 431.255 353.946 429.33C358.07 428.557 359.099 428.3 360.098 429.006C363.037 431.084 360.911 438.1 360.764 438.557C360.323 439.958 359.04 444.038 355.435 446.488C349.401 450.597 343.729 445.421 328.476 446.002C321.178 446.279 321.765 447.489 315.662 447.299C312.635 447.203 297.069 446.717 293.866 439.205C292.122 435.106 295.296 431.846 292.534 427.385C290.996 424.906 288.664 423.743 287.156 423.009H287.097Z" fill="#1CA466"/>
<path d="M412.782 568.42C412.253 568.325 411.949 570.641 410.343 572.843C408.099 575.913 405.758 575.446 400.027 579.316C397.275 581.175 395.893 582.109 395.149 583.415C393.356 586.542 394.845 588.896 392.71 592.585C391.416 594.816 389.976 595.512 390.27 596.036C390.809 597.008 396.403 595.922 401.026 593.234C410.646 587.628 412.997 576.857 413.233 572.081C413.252 571.699 413.409 568.525 412.792 568.411L412.782 568.42Z" fill="#1CA466"/>
<path d="M131.994 444.267C132.121 444.248 132.062 457.432 137.979 474.924C142.838 489.28 145.267 496.449 150.842 503.208C155.505 508.851 161.706 514.037 160.158 519.184C159.276 522.12 156.514 522.911 155.72 526.524C154.907 530.194 156.798 533.741 158.6 536.238C154.633 529.689 149.225 519.851 144.405 507.307C131.504 473.761 131.788 444.296 131.984 444.267H131.994Z" fill="#1CA466"/>
<path d="M181.504 322.059C189.272 318.418 194.915 315.872 199.695 317.96C203.761 319.733 203.134 323.089 206.347 324.223C215.34 327.388 234.491 306.216 230.524 298.962C229.015 296.197 224.284 295.711 224.538 294.424C224.803 293.07 230.005 294.176 234.746 291.183C238.184 289.01 240.663 285.139 239.85 284.062C238.018 281.641 220.287 294.529 217.887 291.831C215.692 289.372 225.655 273.166 237.185 273.052C239.507 273.033 244.444 273.633 245.835 276.503C247.04 279 244.787 281.565 245.835 282.546C247.922 284.491 258.835 276.274 259.364 276.932C259.854 277.532 250.342 283.7 251.38 285.997C252.751 289.048 272.912 286.045 274.675 278.657C275.557 274.968 271.286 272.509 272.677 269.592C274.45 265.883 284.109 264.091 288.654 268.724C291.623 271.756 291.672 276.808 289.987 280.383C287.694 285.235 282.796 286.074 272.236 290.096C248.147 299.276 243.798 306.264 242.505 308.666C242.172 309.276 238.469 316.311 240.947 318.809C244.013 321.888 252.497 313.995 268.239 312.546C279.417 311.516 280.191 315.034 288.204 312.975C299.538 310.058 308.139 300.42 309.942 291.383C310.245 289.877 311.636 282.88 308.168 280.154C306.964 279.21 306.111 279.515 305.063 278.428C302.379 275.635 305.661 271.203 303.731 268.715C301.125 265.34 292.299 269.83 290.418 267.199C288.978 265.197 291.956 259.544 296.629 255.76C303.701 250.021 311.215 251.356 330.572 248.849C336.969 248.019 342.142 247.104 345.433 246.475C339.115 245.426 329.103 244.14 316.818 244.321C262.636 245.083 223.696 273.319 211.882 281.889C209.648 283.509 193.778 294.348 178.163 312.546C171.208 320.648 165.918 328.303 167.074 329.38C167.965 330.219 172.031 326.473 181.494 322.04L181.504 322.059Z" fill="#1CA466"/>
<path d="M313.213 245.884H331.963C333.868 245.884 335.412 244.384 335.412 242.534C335.412 240.683 333.868 239.183 331.963 239.183H313.213C311.309 239.183 309.765 240.683 309.765 242.534C309.765 244.384 311.309 245.884 313.213 245.884Z" fill="#1CA466"/>
<path d="M332.345 243.32C334.834 243.32 336.852 241.357 336.852 238.935C336.852 236.513 334.834 234.55 332.345 234.55C329.857 234.55 327.839 236.513 327.839 238.935C327.839 241.357 329.857 243.32 332.345 243.32Z" fill="#1CA466"/>
<path d="M318.807 244.273C323.795 244.273 327.839 241.491 327.839 238.058C327.839 234.625 323.795 231.843 318.807 231.843C313.819 231.843 309.775 234.625 309.775 238.058C309.775 241.491 313.819 244.273 318.807 244.273Z" fill="#1CA466"/>
<path d="M326.83 239.984C328.296 239.984 329.485 238.52 329.485 236.714C329.485 234.908 328.296 233.444 326.83 233.444C325.364 233.444 324.175 234.908 324.175 236.714C324.175 238.52 325.364 239.984 326.83 239.984Z" fill="#1CA466"/>
<path d="M310.676 242.815C311.85 242.815 312.802 241.889 312.802 240.746C312.802 239.604 311.85 238.678 310.676 238.678C309.502 238.678 308.551 239.604 308.551 240.746C308.551 241.889 309.502 242.815 310.676 242.815Z" fill="#1CA466"/>
<path d="M397.04 380.065L404.7 375.556C408.148 373.526 412.341 374.069 414.016 376.758L417.249 381.943C418.924 384.641 417.474 388.502 414.036 390.532L406.375 395.041C405.876 395.337 405.268 395.26 405.023 394.87L396.579 381.305C396.334 380.914 396.54 380.361 397.049 380.065H397.04Z" fill="#222221"/>
<path d="M400.938 384.695C401.576 384.319 401.78 383.51 401.393 382.888C401.007 382.267 400.175 382.068 399.537 382.445L393.311 386.115C392.673 386.491 392.469 387.3 392.856 387.922C393.243 388.543 394.074 388.742 394.713 388.365L400.938 384.695Z" fill="#222221"/>
<path d="M405.369 391.812C406.007 391.436 406.211 390.627 405.825 390.006C405.438 389.384 404.606 389.186 403.968 389.562L397.743 393.232C397.104 393.609 396.9 394.418 397.287 395.039C397.674 395.66 398.505 395.859 399.144 395.483L405.369 391.812Z" fill="#222221"/>
<path d="M255.935 475.401L247.961 471.445C244.366 469.662 242.632 465.916 244.101 463.104L246.932 457.699C248.402 454.896 252.536 454.048 256.131 455.831L264.105 459.787C264.624 460.044 264.879 460.587 264.663 460.997L257.267 475.134C257.052 475.544 256.454 475.658 255.935 475.401Z" fill="#222221"/>
<path d="M257.944 469.786C257.278 469.457 256.464 469.714 256.126 470.362C255.787 471.009 256.052 471.801 256.717 472.131L263.203 475.344C263.869 475.674 264.683 475.416 265.021 474.769C265.36 474.121 265.095 473.329 264.43 473L257.944 469.786Z" fill="#222221"/>
<path d="M261.826 462.371C261.161 462.042 260.347 462.299 260.008 462.947C259.669 463.594 259.934 464.386 260.6 464.716L267.086 467.929C267.751 468.259 268.565 468.001 268.904 467.354C269.243 466.706 268.978 465.914 268.313 465.585L261.826 462.371Z" fill="#222221"/>
<path d="M405.552 475.582L411.42 482.159C414.065 485.124 414.232 489.233 411.783 491.301L407.08 495.276C404.641 497.345 400.478 496.611 397.833 493.646L391.965 487.069C391.583 486.64 391.553 486.049 391.916 485.744L404.22 475.344C404.573 475.048 405.17 475.153 405.562 475.582H405.552Z" fill="#222221"/>
<path d="M401.534 480.13C402.023 480.679 402.877 480.737 403.441 480.26C404.004 479.784 404.064 478.953 403.574 478.404L398.8 473.058C398.311 472.51 397.457 472.452 396.893 472.928C396.33 473.405 396.27 474.236 396.759 474.784L401.534 480.13Z" fill="#222221"/>
<path d="M395.064 485.585C395.554 486.133 396.408 486.192 396.971 485.715C397.535 485.239 397.595 484.408 397.105 483.859L392.331 478.513C391.841 477.965 390.987 477.906 390.424 478.383C389.86 478.86 389.8 479.69 390.29 480.239L395.064 485.585Z" fill="#222221"/>
<path d="M407.208 386.557C406.512 386.557 405.846 386.166 405.543 385.509C405.121 384.612 405.543 383.554 406.454 383.154C408.344 382.315 413.301 379.913 418.454 375.566C425.448 369.665 430.141 362.592 432.394 354.518C434.774 345.986 434.236 337.121 430.768 328.17C428.172 321.44 424.724 316.855 423.724 315.606C415.917 305.816 405.464 301.755 397.833 298.781C390.966 296.112 385.539 293.995 385.402 288.972C385.294 284.863 389.056 280.612 396.011 276.989C402.134 273.805 409.98 271.546 417.024 270.955C429.808 269.878 442.553 273.824 454.915 282.699C463.879 289.134 469.992 296.36 472.206 299.172C472.823 299.953 472.666 301.069 471.863 301.669C471.06 302.27 469.913 302.117 469.296 301.336C467.18 298.647 461.322 291.727 452.741 285.569C441.113 277.228 429.2 273.5 417.337 274.501C410.764 275.054 403.436 277.161 397.735 280.125C392.23 282.985 388.987 286.255 389.065 288.867C389.134 291.422 392.768 292.966 399.195 295.463C407.218 298.581 418.199 302.851 426.624 313.404C427.702 314.748 431.424 319.705 434.206 326.902C437.939 336.578 438.526 346.177 435.93 355.443C433.481 364.213 428.407 371.886 420.844 378.254C415.525 382.734 410.49 385.28 407.962 386.395C407.717 386.5 407.463 386.557 407.208 386.557Z" fill="#222221"/>
<path d="M162.489 500.253C162.489 500.253 162.43 500.253 162.411 500.253C152.958 500.186 144.17 487.412 136.275 462.294C132.043 448.834 130.416 434.449 131.425 419.54C132.307 406.537 135.07 395.508 136.549 389.588C139.791 376.605 144.611 363.984 150.861 352.087C151.322 351.21 152.428 350.867 153.33 351.315C154.231 351.763 154.584 352.84 154.123 353.717C148.001 365.376 143.289 377.73 140.105 390.446C138.087 398.501 135.873 408.082 135.079 419.788C134.09 434.258 135.677 448.214 139.772 461.264C149.441 492.026 158.12 496.668 162.44 496.706C162.46 496.706 162.47 496.706 162.489 496.706C167.848 496.706 171.521 489.547 175.783 481.264C181.141 470.835 187.812 457.851 201.214 452.37C209.109 449.139 218.376 448.929 228.76 451.741C236.774 453.905 245.649 457.937 255.142 463.724C255.994 464.248 256.258 465.344 255.72 466.183C255.181 467.022 254.054 467.27 253.192 466.745C232.493 454.134 215.477 450.397 202.634 455.659C190.487 460.625 184.423 472.436 179.064 482.855C174.264 492.197 170.12 500.262 162.499 500.262L162.489 500.253Z" fill="#222221"/>
<path d="M417.69 594.959C413.762 594.959 410.94 593.968 409.265 592.004C406.826 589.144 408.119 585.483 408.54 584.282C409.461 581.661 411.215 578.62 413.242 575.102C418.033 566.79 424.586 555.418 425.262 540.623C426.036 523.741 418.934 506.306 404.151 488.804C403.505 488.041 403.622 486.916 404.406 486.297C405.19 485.668 406.346 485.782 406.983 486.545C422.353 504.742 429.729 522.997 428.916 540.785C428.201 556.428 421.393 568.229 416.426 576.847C412.478 583.701 410.323 587.676 412.077 589.735C414.565 592.652 423.744 591.651 435.46 587.19C447.97 582.424 462.155 574.33 473.411 565.522C484.931 556.514 494.668 545.933 503.181 533.169C526.633 498.012 531.247 459.558 530.993 433.486C530.993 432.504 531.796 431.694 532.805 431.684H532.824C533.824 431.684 534.647 432.466 534.656 433.448C534.813 448.996 533.265 464.2 530.052 478.632C525.438 499.347 517.435 518.345 506.257 535.104C497.646 548.011 487.37 559.183 475.703 568.296C464.173 577.314 449.625 585.617 436.792 590.507C430.464 592.919 424.753 594.416 420.266 594.835C419.355 594.921 418.493 594.959 417.68 594.959H417.69Z" fill="#222221"/>
<path d="M341.818 237.267H333.932C331.005 237.267 328.633 239.574 328.633 242.419C328.633 245.265 331.005 247.572 333.932 247.572H341.818C344.745 247.572 347.118 245.265 347.118 242.419C347.118 239.574 344.745 237.267 341.818 237.267Z" fill="white"/>
<path d="M340.594 131.34H335.157L332.355 242.424H343.396L340.594 131.34Z" fill="white"/>
<path d="M337.998 133.552C340.627 133.552 342.759 131.478 342.759 128.919C342.759 126.361 340.627 124.286 337.998 124.286C335.368 124.286 333.237 126.361 333.237 128.919C333.237 131.478 335.368 133.552 337.998 133.552Z" fill="white"/>
<path d="M343.405 129.367C345.698 128.89 347.441 128.033 348.568 127.375C364.007 136.621 379.455 145.868 394.894 155.115C395.012 155.267 395.374 155.82 395.335 156.592C395.286 157.383 394.835 157.889 394.708 158.022C375.948 148.566 357.189 139.119 338.439 129.663C339.663 129.767 341.397 129.777 343.415 129.358L343.405 129.367Z" fill="white"/>
<path d="M336.274 122.952C334.696 121.274 333.06 120.235 331.905 119.615C332.316 101.98 332.727 84.3351 333.129 66.6997C333.207 66.5282 333.511 65.9371 334.216 65.5844C334.941 65.2222 335.617 65.3461 335.803 65.3842C336.881 85.908 337.968 106.441 339.046 126.965C338.517 125.878 337.655 124.42 336.264 122.942L336.274 122.952Z" fill="white"/>
<path d="M333.227 132.275C332.551 134.458 332.473 136.355 332.532 137.632C316.76 146.326 300.978 155.029 285.206 163.723C285.01 163.742 284.344 163.799 283.668 163.38C282.982 162.96 282.737 162.331 282.679 162.15C300.243 150.73 317.798 139.3 335.363 127.88C334.677 128.881 333.834 130.349 333.237 132.265L333.227 132.275Z" fill="white"/>
<path d="M504.789 327.909L500.848 322.39C499.39 320.349 496.509 319.845 494.412 321.263L494.404 321.269C492.307 322.687 491.788 325.491 493.246 327.531L497.187 333.05C498.645 335.09 501.526 335.595 503.623 334.176L503.631 334.171C505.728 332.753 506.247 329.949 504.789 327.909Z" fill="white"/>
<path d="M582.285 274.206L579.581 270.421L496.265 323.861L501.77 331.563L582.285 274.206Z" fill="white"/>
<path d="M582.775 275.235C585.069 275.235 586.929 273.426 586.929 271.193C586.929 268.961 585.069 267.152 582.775 267.152C580.481 267.152 578.622 268.961 578.622 271.193C578.622 273.426 580.481 275.235 582.775 275.235Z" fill="white"/>
<path d="M585.146 275.197C586.635 276.56 588.144 277.351 589.192 277.809C590.073 293.204 590.955 308.599 591.837 323.985C591.778 324.137 591.562 324.671 590.965 325.024C590.357 325.386 589.76 325.329 589.593 325.3C587.213 307.493 584.823 289.677 582.442 271.87C582.981 272.776 583.833 273.996 585.146 275.187V275.197Z" fill="white"/>
<path d="M586.321 267.018C586.772 265.073 586.723 263.415 586.596 262.299C599.811 253.787 613.016 245.274 626.231 236.771C626.398 236.743 626.985 236.657 627.593 236.981C628.22 237.305 628.465 237.839 628.533 237.991C613.937 248.982 599.34 259.974 584.734 270.974C585.273 270.069 585.92 268.734 586.312 267.028L586.321 267.018Z" fill="white"/>
<path d="M577.926 269.535C575.986 270.154 574.537 271.05 573.626 271.718C559.343 265.045 545.06 258.363 530.787 251.69C530.679 251.566 530.297 251.118 530.268 250.441C530.238 249.755 530.581 249.268 530.679 249.135C547.862 255.703 565.044 262.261 582.227 268.829C581.149 268.848 579.64 268.991 577.936 269.535H577.926Z" fill="white"/>
<path d="M145.258 522.126L148.624 527.995C149.868 530.165 152.684 530.943 154.914 529.732L154.923 529.727C157.153 528.517 157.952 525.776 156.708 523.606L153.343 517.737C152.098 515.567 149.282 514.79 147.052 516L147.043 516.005C144.813 517.216 144.014 519.956 145.258 522.126Z" fill="white"/>
<path d="M62.7053 568.144L65.0172 572.186L153.32 526.963L148.618 518.765L62.7053 568.144Z" fill="white"/>
<path d="M61.9119 575.141C64.2059 575.141 66.0655 573.331 66.0655 571.099C66.0655 568.867 64.2059 567.057 61.9119 567.057C59.6179 567.057 57.7583 568.867 57.7583 571.099C57.7583 573.331 59.6179 575.141 61.9119 575.141Z" fill="white"/>
<path d="M59.9624 566.895C58.6105 565.398 57.1999 564.464 56.2007 563.911C56.8766 548.507 57.5526 533.102 58.2285 517.697C58.2971 517.545 58.5714 517.04 59.1983 516.744C59.8351 516.439 60.4228 516.563 60.5894 516.601C61.1673 534.551 61.7355 552.51 62.3135 570.46C61.8727 569.507 61.138 568.211 59.9526 566.895H59.9624Z" fill="white"/>
<path d="M57.9737 574.921C57.3272 576.809 57.2096 578.468 57.2194 579.592C43.2109 586.799 29.2023 594.006 15.2036 601.212C15.037 601.222 14.4493 601.26 13.8615 600.879C13.2737 600.497 13.0778 599.944 13.0288 599.782C28.6635 590.24 44.308 580.698 59.9428 571.146C59.3158 572.004 58.5419 573.263 57.9737 574.921Z" fill="white"/>
<path d="M66.5748 573.215C68.5732 572.786 70.0916 572.033 71.081 571.452C84.6194 579.459 98.1577 587.476 111.696 595.483C111.794 595.617 112.127 596.094 112.088 596.77C112.049 597.457 111.657 597.905 111.549 598.029C95.1111 589.85 78.6731 581.68 62.2449 573.501C63.3225 573.587 64.8311 573.587 66.5846 573.215H66.5748Z" fill="white"/>
<path d="M387.449 256.818C387.282 256.818 387.126 256.78 386.969 256.694C386.509 256.437 386.342 255.865 386.606 255.407C388.811 251.642 390.104 247.714 390.447 243.73C390.691 240.927 390.407 238.887 390.123 236.914C389.82 234.74 389.536 232.681 390.016 230.003C390.848 225.427 393.64 221.099 398.293 217.124C398.695 216.781 399.312 216.819 399.665 217.21C400.017 217.601 399.978 218.201 399.577 218.545C395.257 222.224 392.68 226.19 391.926 230.327C391.495 232.72 391.749 234.54 392.043 236.657C392.318 238.639 392.631 240.879 392.376 243.892C392.004 248.153 390.633 252.347 388.291 256.341C388.115 256.646 387.782 256.818 387.449 256.818Z" fill="#1CA466"/>
<path d="M399.41 212.768C399.008 210.833 398.254 209.479 397.715 208.669C397.049 207.677 396.461 206.819 395.394 206.6C395.315 206.581 394.11 206.362 393.366 207.067C392.504 207.897 392.876 209.384 393.072 210.146C393.66 212.463 395.462 213.902 396.412 214.541C395.913 214.303 395.178 213.998 394.267 213.702C393.346 213.406 392.67 213.197 391.759 213.14C390.917 213.092 389.82 213.025 388.889 213.702C388.654 213.874 388.115 214.274 387.978 214.96C387.782 215.923 388.546 216.705 388.683 216.848C389.183 217.363 389.8 217.553 390.251 217.668C392.327 218.182 394.728 217.982 395.834 217.849C394.63 218.268 393.748 218.811 393.17 219.231C392.425 219.774 391.299 220.594 390.672 222.043C390.398 222.672 390.143 223.263 390.378 223.892C390.731 224.827 391.965 225.332 392.954 225.246C393.65 225.189 394.199 224.855 394.992 224.15C395.854 223.378 397.098 222.081 398.225 220.079C397.833 221.319 397.686 222.367 397.627 223.111C397.51 224.626 397.421 225.866 398.186 227.01C398.421 227.362 398.93 228.134 399.861 228.296C400.938 228.478 401.791 227.686 401.879 227.61C402.947 226.6 402.751 224.931 402.574 223.463C402.486 222.701 402.271 221.576 401.693 220.28C402.026 220.794 402.584 221.566 403.446 222.329C404.436 223.216 405.738 224.388 407.374 224.245C407.551 224.236 409.059 224.083 409.51 223.082C409.961 222.1 409.099 220.947 408.746 220.47C407.992 219.46 407.022 218.983 405.748 218.383C404.68 217.877 403.74 217.582 403.084 217.41C405.082 217.725 406.63 217.448 407.531 217.21C408.589 216.934 409.647 216.638 410.362 215.685C410.509 215.485 411.361 214.35 410.901 213.33C410.45 212.339 409.079 212.167 408.697 212.12C408.187 212.053 407.6 212.091 405.934 212.692C405.111 212.987 404.005 213.435 402.731 214.074C403.113 213.616 403.632 212.949 404.171 212.072C405.18 210.413 405.934 209.193 405.562 207.916C405.513 207.763 405.18 206.657 404.151 206.276C403.299 205.962 402.486 206.333 402.29 206.429C401.193 206.934 400.752 208.002 400.223 209.346C399.929 210.099 399.557 211.252 399.43 212.758L399.41 212.768Z" fill="#E42353"/>
<path d="M399.635 219.221C401.053 219.221 402.202 218.103 402.202 216.724C402.202 215.345 401.053 214.226 399.635 214.226C398.218 214.226 397.069 215.345 397.069 216.724C397.069 218.103 398.218 219.221 399.635 219.221Z" fill="white"/>
<path d="M392.758 232.863C394.081 231.862 395.452 231.68 395.991 231.642C395.952 232.148 395.825 232.967 395.286 233.816C395.08 234.14 394.169 235.465 392.425 235.856C391.691 236.018 391.064 235.951 390.682 235.884C390.829 235.389 391.309 233.968 392.758 232.872V232.863Z" fill="#1CA466"/>
<path d="M390.016 231.109C389.183 229.688 387.978 229.021 387.498 228.792C387.331 229.269 387.135 230.089 387.312 231.061C387.38 231.442 387.704 233.006 389.173 233.997C389.79 234.416 390.398 234.588 390.78 234.664C390.838 234.159 390.936 232.662 390.025 231.109H390.016Z" fill="#1CA466"/>
<path d="M390.035 244.874C389.202 243.453 387.997 242.786 387.517 242.557C387.351 243.034 387.155 243.854 387.331 244.826C387.4 245.207 387.723 246.771 389.193 247.762C389.81 248.181 390.417 248.353 390.799 248.429C390.858 247.924 390.956 246.427 390.045 244.874H390.035Z" fill="#1CA466"/>
<path d="M188.439 315.043C188.332 315.043 188.224 315.024 188.116 314.986C183.649 313.461 179.789 311.173 176.635 308.189C174.411 306.083 173.138 304.195 172.011 302.517C170.806 300.735 169.778 299.191 167.838 297.665C164.478 295.025 159.864 293.671 154.123 293.652C153.585 293.652 153.154 293.223 153.154 292.708C153.154 292.184 153.585 291.765 154.123 291.765C160.315 291.784 165.34 293.28 169.053 296.197C171.228 297.904 172.393 299.639 173.628 301.478C174.754 303.147 175.91 304.872 177.977 306.826C180.926 309.619 184.55 311.755 188.743 313.194C189.253 313.366 189.517 313.909 189.341 314.395C189.204 314.786 188.822 315.024 188.43 315.024L188.439 315.043Z" fill="#1CA466"/>
<path d="M150.352 289.191C149.353 287.475 149.01 285.969 148.873 285.006C148.706 283.833 148.569 282.813 149.235 281.965C149.284 281.898 150.048 280.964 151.087 281.021C152.291 281.088 153.016 282.461 153.379 283.157C154.496 285.282 154.104 287.513 153.81 288.609C154.025 288.114 154.368 287.408 154.868 286.607C155.367 285.797 155.73 285.206 156.386 284.587C156.994 284.015 157.777 283.262 158.933 283.185C159.227 283.166 159.903 283.119 160.471 283.547C161.275 284.158 161.226 285.225 161.216 285.416C161.186 286.131 160.853 286.665 160.589 287.036C159.364 288.752 157.415 290.135 156.494 290.735C157.689 290.287 158.718 290.134 159.433 290.077C160.364 290.011 161.764 289.915 163.214 290.611C163.841 290.916 164.439 291.193 164.684 291.822C165.056 292.756 164.458 293.919 163.655 294.491C163.097 294.891 162.45 294.987 161.373 294.968C160.197 294.939 158.395 294.748 156.19 293.957C157.317 294.643 158.14 295.339 158.688 295.864C159.795 296.931 160.697 297.818 160.902 299.162C160.961 299.581 161.098 300.496 160.51 301.192C159.825 302.012 158.639 301.964 158.522 301.955C157.043 301.869 156.053 300.487 155.201 299.267C154.75 298.638 154.163 297.646 153.722 296.293C153.82 296.893 153.908 297.827 153.78 298.962C153.634 300.258 153.438 301.974 152.105 302.918C151.968 303.013 150.734 303.871 149.705 303.404C148.706 302.946 148.569 301.526 148.52 300.945C148.402 299.705 148.824 298.723 149.382 297.456C149.852 296.397 150.362 295.568 150.744 295.025C149.451 296.54 148.089 297.322 147.256 297.713C146.267 298.18 145.277 298.628 144.092 298.361C143.847 298.304 142.436 297.999 142.103 296.931C141.77 295.892 142.691 294.891 142.956 294.605C143.299 294.234 143.759 293.881 145.424 293.28C146.247 292.975 147.384 292.603 148.775 292.279C148.177 292.174 147.335 292.003 146.345 291.688C144.464 291.088 143.073 290.64 142.495 289.439C142.427 289.296 141.937 288.238 142.456 287.294C142.887 286.512 143.759 286.274 143.965 286.217C145.13 285.902 146.179 286.426 147.491 287.094C148.216 287.465 149.284 288.114 150.391 289.162L150.352 289.191Z" fill="#E42353"/>
<path d="M152.85 294.825C154.267 294.825 155.416 293.706 155.416 292.327C155.416 290.948 154.267 289.83 152.85 289.83C151.432 289.83 150.283 290.948 150.283 292.327C150.283 293.706 151.432 294.825 152.85 294.825Z" fill="white"/>
<path d="M168.916 300.115C167.241 300.201 166.085 300.944 165.654 301.259C166.016 301.612 166.682 302.155 167.652 302.451C168.024 302.565 169.611 302.984 171.179 302.165C171.845 301.812 172.276 301.364 172.521 301.068C172.08 300.792 170.757 300.029 168.916 300.115Z" fill="#1CA466"/>
<path d="M169.807 297.046C169.484 295.444 169.944 294.167 170.15 293.681C170.591 293.938 171.296 294.424 171.825 295.273C172.031 295.597 172.834 296.989 172.403 298.676C172.217 299.391 171.874 299.905 171.639 300.211C171.257 299.867 170.17 298.8 169.807 297.046Z" fill="#1CA466"/>
<path d="M179.064 307.446C178.741 305.844 179.202 304.567 179.407 304.081C179.848 304.338 180.553 304.824 181.082 305.673C181.288 305.997 182.091 307.389 181.66 309.076C181.474 309.791 181.131 310.306 180.896 310.611C180.514 310.267 179.427 309.2 179.064 307.446Z" fill="#1CA466"/>
<path d="M104.3 509.833C104.075 509.833 103.849 509.756 103.663 509.604C103.261 509.261 103.213 508.67 103.565 508.269C107.631 503.722 112.078 500.996 116.77 500.176C119.523 499.69 121.639 499.966 123.873 500.252C125.9 500.519 128.007 500.786 130.877 500.548C134.972 500.195 139.008 498.927 142.868 496.773C143.328 496.515 143.925 496.668 144.19 497.126C144.454 497.574 144.298 498.155 143.828 498.412C139.723 500.7 135.422 502.054 131.043 502.426C127.958 502.683 125.646 502.388 123.608 502.121C121.433 501.835 119.562 501.596 117.104 502.025C112.852 502.769 108.787 505.285 105.015 509.499C104.819 509.709 104.555 509.823 104.28 509.823L104.3 509.833Z" fill="#1CA466"/>
<path d="M99.0882 509.356C97.0996 508.965 95.6988 508.241 94.8661 507.716C93.8473 507.078 92.9656 506.506 92.7403 505.467C92.7207 505.39 92.4856 504.218 93.2203 503.484C94.0628 502.635 95.6008 503.007 96.3845 503.188C98.765 503.751 100.244 505.505 100.91 506.429C100.665 505.943 100.342 505.238 100.048 504.342C99.7446 503.446 99.5193 502.788 99.4703 501.901C99.4213 501.082 99.3527 500.014 100.048 499.108C100.225 498.88 100.636 498.355 101.341 498.212C102.331 498.022 103.144 498.756 103.281 498.889C103.82 499.375 104.016 499.976 104.133 500.414C104.672 502.435 104.466 504.771 104.339 505.848C104.77 504.675 105.328 503.817 105.75 503.255C106.298 502.521 107.151 501.434 108.64 500.815C109.286 500.548 109.893 500.3 110.54 500.519C111.5 500.853 112.019 502.054 111.941 503.026C111.882 503.703 111.549 504.237 110.814 505.019C110.021 505.867 108.698 507.078 106.641 508.174C107.915 507.783 108.992 507.64 109.756 507.583C111.314 507.459 112.587 507.373 113.763 508.117C114.125 508.346 114.929 508.841 115.085 509.737C115.272 510.786 114.468 511.615 114.38 511.701C113.351 512.74 111.627 512.559 110.119 512.397C109.335 512.311 108.179 512.111 106.837 511.548C107.366 511.873 108.16 512.416 108.953 513.245C109.864 514.198 111.069 515.466 110.942 517.068C110.932 517.239 110.785 518.707 109.747 519.155C108.738 519.594 107.542 518.765 107.062 518.421C106.024 517.697 105.534 516.744 104.917 515.504C104.398 514.465 104.094 513.55 103.908 512.912C104.241 514.856 103.957 516.362 103.722 517.239C103.438 518.269 103.144 519.298 102.164 519.994C101.959 520.137 100.803 520.967 99.7446 520.519C98.7258 520.08 98.5397 518.746 98.4907 518.374C98.4221 517.878 98.4613 517.306 99.0686 515.686C99.3723 514.885 99.823 513.808 100.479 512.568C100.009 512.94 99.3234 513.455 98.4319 513.97C96.7372 514.961 95.4735 515.695 94.1608 515.333C94.004 515.285 92.8677 514.961 92.4758 513.96C92.1525 513.131 92.5346 512.34 92.6228 512.149C93.1322 511.081 94.2293 510.652 95.6106 510.128C96.3747 509.842 97.5698 509.48 99.1078 509.346L99.0882 509.356Z" fill="#E42353"/>
<path d="M103.164 512.063C104.581 512.063 105.73 510.945 105.73 509.566C105.73 508.186 104.581 507.068 103.164 507.068C101.746 507.068 100.597 508.186 100.597 509.566C100.597 510.945 101.746 512.063 103.164 512.063Z" fill="white"/>
<path d="M119.719 502.826C118.69 504.113 118.514 505.457 118.475 505.981C118.994 505.943 119.837 505.81 120.708 505.286C121.041 505.085 122.403 504.199 122.795 502.502C122.962 501.787 122.893 501.167 122.824 500.805C122.315 500.948 120.865 501.425 119.729 502.836L119.719 502.826Z" fill="#1CA466"/>
<path d="M117.907 500.157C116.447 499.347 115.761 498.174 115.516 497.707C116.006 497.545 116.849 497.354 117.848 497.516C118.24 497.583 119.846 497.888 120.865 499.318C121.296 499.919 121.482 500.51 121.561 500.882C121.041 500.939 119.503 501.044 117.907 500.157Z" fill="#1CA466"/>
<path d="M132.052 500.147C130.593 499.337 129.907 498.165 129.662 497.698C130.152 497.536 130.994 497.345 131.994 497.507C132.385 497.574 133.992 497.879 135.011 499.309C135.442 499.909 135.628 500.5 135.706 500.872C135.187 500.929 133.649 501.034 132.052 500.147Z" fill="#1CA466"/>
<path d="M517.601 390.942C517.337 390.942 517.072 390.837 516.876 390.627C516.514 390.236 516.553 389.645 516.945 389.293C520.462 386.214 524.38 384.021 528.583 382.763C531.551 381.876 533.863 381.695 535.91 381.543C538.095 381.371 539.985 381.228 542.288 380.303C546.284 378.702 549.713 375.413 552.495 370.523C552.75 370.065 553.347 369.903 553.808 370.151C554.278 370.399 554.445 370.981 554.19 371.429C551.192 376.71 547.44 380.275 543.022 382.038C540.436 383.068 538.31 383.239 536.057 383.411C534.02 383.564 531.904 383.735 529.141 384.555C525.213 385.727 521.539 387.796 518.228 390.684C518.042 390.846 517.807 390.923 517.582 390.923L517.601 390.942Z" fill="#1CA466"/>
<path d="M558.344 369.455C560.371 369.427 561.89 369.856 562.82 370.199C563.957 370.618 564.946 371 565.387 371.972C565.416 372.048 565.906 373.145 565.348 374.002C564.701 375.003 563.124 374.956 562.321 374.937C559.872 374.87 558.05 373.459 557.197 372.687C557.54 373.116 558.011 373.745 558.491 374.546C558.98 375.366 559.333 375.957 559.588 376.815C559.813 377.606 560.117 378.635 559.627 379.655C559.509 379.913 559.215 380.513 558.559 380.79C557.629 381.181 556.688 380.628 556.512 380.523C555.885 380.151 555.561 379.617 555.346 379.207C554.386 377.339 554.082 375.013 553.974 373.936C553.808 375.165 553.446 376.128 553.152 376.757C552.77 377.587 552.172 378.826 550.859 379.732C550.281 380.122 549.743 380.494 549.067 380.408C548.048 380.275 547.284 379.207 547.156 378.244C547.068 377.577 547.284 376.977 547.822 376.071C548.41 375.08 549.449 373.631 551.222 372.134C550.066 372.773 549.037 373.135 548.312 373.345C546.823 373.783 545.589 374.126 544.276 373.65C543.865 373.497 542.983 373.173 542.631 372.334C542.219 371.352 542.836 370.371 542.895 370.275C543.679 369.046 545.403 368.874 546.911 368.731C547.695 368.655 548.871 368.617 550.301 368.893C549.713 368.683 548.822 368.321 547.871 367.663C546.774 366.91 545.324 365.919 545.109 364.336C545.089 364.165 544.913 362.706 545.824 362.058C546.716 361.419 548.058 361.991 548.606 362.23C549.782 362.725 550.467 363.555 551.339 364.641C552.074 365.547 552.564 366.386 552.877 366.967C552.133 365.137 552.084 363.602 552.133 362.697C552.192 361.629 552.26 360.571 553.063 359.684C553.23 359.503 554.19 358.455 555.307 358.674C556.404 358.893 556.864 360.161 556.992 360.514C557.168 360.99 557.256 361.543 557.002 363.259C556.874 364.108 556.668 365.252 556.296 366.596C556.668 366.138 557.237 365.499 558.001 364.804C559.451 363.488 560.518 362.516 561.88 362.601C562.047 362.611 563.232 362.697 563.829 363.602C564.329 364.346 564.123 365.204 564.074 365.404C563.8 366.548 562.82 367.196 561.586 367.987C560.9 368.426 559.813 369.026 558.334 369.465L558.344 369.455Z" fill="#E42353"/>
<path d="M554.317 372.582C555.735 372.582 556.884 371.464 556.884 370.084C556.884 368.705 555.735 367.587 554.317 367.587C552.9 367.587 551.751 368.705 551.751 370.084C551.751 371.464 552.9 372.582 554.317 372.582Z" fill="white"/>
<path d="M539.584 380.056C540.309 378.588 540.191 377.244 540.123 376.719C539.623 376.862 538.82 377.167 538.095 377.854C537.811 378.121 536.674 379.264 536.655 381.009C536.655 381.743 536.851 382.324 536.998 382.677C537.458 382.439 538.781 381.676 539.584 380.065V380.056Z" fill="#1CA466"/>
<path d="M541.925 382.296C543.522 382.792 544.452 383.793 544.785 384.202C544.345 384.46 543.561 384.822 542.542 384.86C542.15 384.879 540.514 384.898 539.202 383.716C538.643 383.221 538.349 382.677 538.183 382.334C538.682 382.172 540.162 381.753 541.915 382.296H541.925Z" fill="#1CA466"/>
<path d="M528.093 385.194C529.69 385.689 530.62 386.69 530.953 387.1C530.513 387.357 529.729 387.72 528.71 387.758C528.318 387.777 526.682 387.796 525.37 386.614C524.811 386.118 524.517 385.575 524.351 385.232C524.85 385.07 526.33 384.65 528.083 385.194H528.093Z" fill="#1CA466"/>
<path d="M383.932 253.205C383.824 253.205 383.717 253.186 383.599 253.148C383.1 252.967 382.835 252.433 383.011 251.937C383.883 249.592 384.275 247.162 384.197 244.721C384.02 239.688 381.806 236.151 380.748 234.445C378.701 231.156 375.792 228.335 372.334 226.266C371.873 225.99 371.736 225.408 372.01 224.97C372.294 224.522 372.882 224.388 373.343 224.655C377.055 226.876 380.19 229.917 382.404 233.454C383.55 235.294 385.94 239.116 386.136 244.645C386.234 247.324 385.794 249.993 384.843 252.567C384.696 252.948 384.324 253.186 383.932 253.186V253.205Z" fill="#1CA466"/>
<path d="M373.93 226.419C373.362 226.39 372.569 226.257 371.785 225.799C369.375 224.407 369.277 221.347 369.277 221.071C369.855 221.166 370.844 221.424 371.795 222.158C373.764 223.683 373.911 226.018 373.93 226.419Z" fill="#1CA466"/>
<path d="M378.848 226.304C378.691 224.645 377.516 223.673 377.153 223.397C376.82 223.864 376.311 224.722 376.232 225.808C376.085 227.839 377.565 229.107 377.927 229.402C378.221 229.002 378.985 227.81 378.848 226.304Z" fill="#1CA466"/>
<path d="M381.983 227.048C381.699 227.267 380.366 228.344 380.112 230.251C379.886 231.938 380.641 233.196 380.866 233.53C381.228 233.292 382.277 232.548 382.727 231.166C383.423 229.04 382.139 227.248 381.983 227.048Z" fill="#1CA466"/>
<path d="M385.637 232.558C385.147 232.882 384.402 233.473 383.883 234.455C382.649 236.79 383.824 239.202 383.981 239.526C384.363 239.307 385.637 238.496 386.205 236.885C386.979 234.683 385.793 232.805 385.627 232.558H385.637Z" fill="#1CA466"/>
<path d="M378.887 238.849C379.024 239.125 379.867 240.775 381.865 241.366C383.481 241.842 384.823 241.337 385.206 241.175C384.941 240.775 384.01 239.488 382.198 238.916C380.689 238.43 379.396 238.716 378.887 238.849Z" fill="#1CA466"/>
<path d="M376.81 233.006C377.192 233.682 378.417 235.646 380.641 236.666C382.041 237.314 383.246 237.305 383.913 237.238C383.423 236.485 382.198 234.788 380.141 233.778C378.75 233.091 377.535 232.996 376.81 232.996V233.006Z" fill="#1CA466"/>
<path d="M371.403 230.48C371.912 230.794 373.196 231.481 374.969 231.461C376.507 231.452 377.653 230.909 378.172 230.613C377.79 230.327 376.37 229.336 374.352 229.45C372.882 229.536 371.834 230.165 371.393 230.47L371.403 230.48Z" fill="#1CA466"/>
<path d="M368.523 227.057C369.071 227.41 369.973 227.906 371.197 228.125C373.254 228.497 374.91 227.858 375.547 227.572C374.812 227.21 373.48 226.667 371.736 226.609C370.355 226.562 369.238 226.829 368.523 227.057Z" fill="#1CA466"/>
<path d="M180.749 319.609C180.318 319.609 179.926 319.333 179.809 318.904C179.162 316.492 178.075 314.271 176.586 312.307C173.51 308.256 169.64 306.55 167.769 305.73C164.164 304.148 160.128 303.423 156.083 303.623C155.554 303.652 155.093 303.251 155.064 302.727C155.034 302.203 155.446 301.764 155.985 301.736C160.334 301.517 164.693 302.308 168.573 304.014C170.591 304.901 174.774 306.74 178.153 311.192C179.789 313.356 180.975 315.787 181.69 318.437C181.827 318.942 181.513 319.457 180.994 319.59C180.916 319.609 180.828 319.619 180.749 319.619V319.609Z" fill="#1CA466"/>
<path d="M157.493 302.861C157.003 303.147 156.278 303.471 155.367 303.528C152.575 303.709 150.714 301.231 150.548 301.011C151.086 300.773 152.046 300.439 153.251 300.525C155.759 300.697 157.248 302.546 157.493 302.861Z" fill="#1CA466"/>
<path d="M161.48 300.068C160.383 298.79 158.855 298.638 158.394 298.609C158.394 299.181 158.473 300.163 159.041 301.097C160.099 302.851 162.058 303.08 162.528 303.128C162.528 302.632 162.479 301.231 161.48 300.068Z" fill="#1CA466"/>
<path d="M164.497 298.952C164.39 299.296 163.92 300.916 164.821 302.622C165.614 304.138 166.966 304.758 167.348 304.92C167.515 304.529 167.936 303.337 167.505 301.946C166.849 299.81 164.742 299.038 164.497 298.952Z" fill="#1CA466"/>
<path d="M170.708 301.479C170.493 302.012 170.228 302.918 170.365 304.005C170.708 306.607 173.079 307.951 173.402 308.132C173.588 307.741 174.176 306.378 173.696 304.729C173.05 302.489 170.983 301.593 170.708 301.479Z" fill="#1CA466"/>
<path d="M168.798 310.382C169.072 310.534 170.728 311.431 172.716 310.82C174.323 310.325 175.146 309.162 175.361 308.828C174.911 308.647 173.392 308.094 171.57 308.618C170.042 309.057 169.141 310.001 168.808 310.382H168.798Z" fill="#1CA466"/>
<path d="M163.684 306.712C164.39 307.055 166.545 308.008 168.974 307.627C170.502 307.389 171.492 306.721 172.011 306.302C171.169 305.949 169.18 305.225 166.888 305.52C165.34 305.72 164.282 306.302 163.694 306.712H163.684Z" fill="#1CA466"/>
<path d="M157.767 307.608C158.365 307.579 159.825 307.446 161.274 306.455C162.538 305.597 163.165 304.519 163.43 303.995C162.95 303.967 161.206 303.928 159.609 305.139C158.443 306.016 157.953 307.112 157.767 307.608Z" fill="#1CA466"/>
<path d="M153.398 306.359C154.055 306.359 155.093 306.264 156.229 305.768C158.14 304.939 159.129 303.509 159.491 302.918C158.678 303.023 157.268 303.309 155.788 304.214C154.623 304.939 153.849 305.768 153.398 306.359Z" fill="#1CA466"/>
<path d="M200.053 284.545L186.234 296.876C184.83 298.129 184.734 300.25 186.02 301.614C187.305 302.978 189.485 303.068 190.888 301.816L204.708 289.485C206.111 288.232 206.207 286.111 204.922 284.747C203.637 283.383 201.457 283.293 200.053 284.545Z" fill="#1CA466"/>
<path d="M185.794 301.288C188.283 301.288 190.301 299.324 190.301 296.903C190.301 294.481 188.283 292.518 185.794 292.518C183.306 292.518 181.288 294.481 181.288 296.903C181.288 299.324 183.306 301.288 185.794 301.288Z" fill="#1CA466"/>
<path d="M199.479 291.972C203.156 288.691 204.204 283.981 201.82 281.451C199.435 278.921 194.522 279.529 190.846 282.81C187.169 286.09 186.121 290.801 188.505 293.331C190.89 295.861 195.803 295.252 199.479 291.972Z" fill="#1CA466"/>
<path d="M190.579 294.084C191.659 293.12 191.519 291.259 190.264 289.928C189.01 288.597 187.117 288.3 186.037 289.264C184.956 290.229 185.097 292.089 186.351 293.42C187.605 294.751 189.498 295.048 190.579 294.084Z" fill="#1CA466"/>
<path d="M203.006 286.055C204.18 286.055 205.132 285.129 205.132 283.986C205.132 282.844 204.18 281.917 203.006 281.917C201.832 281.917 200.88 282.844 200.88 283.986C200.88 285.129 201.832 286.055 203.006 286.055Z" fill="#1CA466"/>
<path opacity="0.71" d="M300.312 228.649H206.611C199.118 228.649 193.043 234.558 193.043 241.847C193.043 249.136 199.118 255.045 206.611 255.045H300.312C307.805 255.045 313.88 249.136 313.88 241.847C313.88 234.558 307.805 228.649 300.312 228.649Z" fill="white"/>
<path opacity="0.71" d="M459.118 268.105H413.644C407.979 268.105 403.387 272.573 403.387 278.085C403.387 283.598 407.979 288.066 413.644 288.066H459.118C464.782 288.066 469.374 283.598 469.374 278.085C469.374 272.573 464.782 268.105 459.118 268.105Z" fill="white"/>
<path opacity="0.71" d="M193.759 466.688H116.927C110.7 466.688 105.652 471.6 105.652 477.66C105.652 483.72 110.7 488.632 116.927 488.632H193.759C199.986 488.632 205.034 483.72 205.034 477.66C205.034 471.6 199.986 466.688 193.759 466.688Z" fill="white"/>
<path opacity="0.71" d="M568.581 340.4H491.749C485.522 340.4 480.474 345.313 480.474 351.372C480.474 357.432 485.522 362.344 491.749 362.344H568.581C574.808 362.344 579.856 357.432 579.856 351.372C579.856 345.313 574.808 340.4 568.581 340.4Z" fill="white"/>
<path opacity="0.71" d="M417.798 274.768H328.427C320.88 274.768 314.761 280.722 314.761 288.066C314.761 295.41 320.88 301.364 328.427 301.364H417.798C425.345 301.364 431.463 295.41 431.463 288.066C431.463 280.722 425.345 274.768 417.798 274.768Z" fill="white"/>
<path opacity="0.71" d="M237.734 370.819H148.363C140.816 370.819 134.697 376.772 134.697 384.117C134.697 391.461 140.816 397.415 148.363 397.415H237.734C245.281 397.415 251.399 391.461 251.399 384.117C251.399 376.772 245.281 370.819 237.734 370.819Z" fill="white"/>
<path opacity="0.71" d="M437.38 443.648H340.662C334.657 443.648 329.789 448.383 329.789 454.224C329.789 460.065 334.657 464.801 340.662 464.801H437.38C443.386 464.801 448.254 460.065 448.254 454.224C448.254 448.383 443.386 443.648 437.38 443.648Z" fill="white"/>
<path opacity="0.71" d="M477.672 460.606H400.213C397.833 460.606 395.903 462.484 395.903 464.801C395.903 467.117 397.833 468.995 400.213 468.995H477.672C480.052 468.995 481.982 467.117 481.982 464.801C481.982 462.484 480.052 460.606 477.672 460.606Z" fill="white"/>
<path opacity="0.71" d="M233.335 243.777H155.877C153.496 243.777 151.566 245.655 151.566 247.972C151.566 250.288 153.496 252.166 155.877 252.166H233.335C235.716 252.166 237.646 250.288 237.646 247.972C237.646 245.655 235.716 243.777 233.335 243.777Z" fill="white"/>
<path opacity="0.71" d="M324.264 661.554H406.62C414.114 661.554 420.188 655.645 420.188 648.356C420.188 641.067 414.114 635.158 406.62 635.158H324.264C316.77 635.158 310.696 641.067 310.696 648.356C310.696 655.645 316.77 661.554 324.264 661.554Z" fill="white"/>
<path opacity="0.71" d="M180.073 622.089H219.346C225.011 622.089 229.603 617.62 229.603 612.108C229.603 606.596 225.011 602.127 219.346 602.127H180.073C174.409 602.127 169.817 606.596 169.817 612.108C169.817 617.62 174.409 622.089 180.073 622.089Z" fill="white"/>
<path opacity="0.71" d="M420.609 423.515H488.105C494.332 423.515 499.38 418.603 499.38 412.543C499.38 406.483 494.332 401.571 488.105 401.571H420.609C414.382 401.571 409.334 406.483 409.334 412.543C409.334 418.603 414.382 423.515 420.609 423.515Z" fill="white"/>
<path opacity="0.71" d="M80.9751 549.793H148.471C154.698 549.793 159.746 544.881 159.746 538.821C159.746 532.762 154.698 527.849 148.471 527.849H80.9751C74.7479 527.849 69.6997 532.762 69.6997 538.821C69.6997 544.881 74.7479 549.793 80.9751 549.793Z" fill="white"/>
<path opacity="0.71" d="M217.818 615.425H296.237C303.784 615.425 309.902 609.472 309.902 602.127C309.902 594.783 303.784 588.829 296.237 588.829H217.818C210.271 588.829 204.152 594.783 204.152 602.127C204.152 609.472 210.271 615.425 217.818 615.425Z" fill="white"/>
<path opacity="0.71" d="M380.984 519.375H459.402C466.95 519.375 473.068 513.421 473.068 506.077C473.068 498.732 466.95 492.779 459.402 492.779H380.984C373.436 492.779 367.318 498.732 367.318 506.077C367.318 513.421 373.436 519.375 380.984 519.375Z" fill="white"/>
<path opacity="0.71" d="M199.813 446.536H285.412C291.417 446.536 296.286 441.801 296.286 435.96C296.286 430.118 291.417 425.383 285.412 425.383H199.813C193.807 425.383 188.939 430.118 188.939 435.96C188.939 441.801 193.807 446.536 199.813 446.536Z" fill="white"/>
<path opacity="0.71" d="M162.695 429.587H232.072C234.452 429.587 236.382 427.709 236.382 425.393C236.382 423.076 234.452 421.198 232.072 421.198H162.695C160.314 421.198 158.385 423.076 158.385 425.393C158.385 427.709 160.314 429.587 162.695 429.587Z" fill="white"/>
<path opacity="0.71" d="M384.089 646.416H453.466C455.846 646.416 457.776 644.538 457.776 642.222C457.776 639.905 455.846 638.027 453.466 638.027H384.089C381.708 638.027 379.779 639.905 379.779 642.222C379.779 644.538 381.708 646.416 384.089 646.416Z" fill="white"/>
</g>
<defs>
<clipPath id="clip0_727_1943">
<rect width="932" height="856" fill="white" transform="translate(-137)"/>
</clipPath>
</defs>
</svg>
