<svg width="619" height="569" viewBox="0 0 619 569" fill="none" xmlns="http://www.w3.org/2000/svg">
<g clip-path="url(#clip0_687_1328)">
<path d="M334.988 7.49116C274.376 14.0571 243.745 17.6218 227.72 31.5831C194.063 60.8986 214.18 93.2027 178.213 132.529C149.365 164.073 129.82 150.51 89.8062 184.15C81.8881 190.805 22.3232 242.186 29.6883 300.007C34.6916 339.282 65.9282 345.012 63.8722 376.867C61.1266 419.428 4.20325 427.096 0.221416 465.193C-3.8385 504.006 49.129 554.375 106.313 566.139C177.101 580.702 200.022 524.913 298.449 523.698C370.161 522.811 376.973 552.19 438.724 543.199C528.609 530.112 579.358 458.368 582.533 453.727C589.644 443.336 628.786 386.136 616.717 318.369C605.48 255.261 561.491 248.442 555.421 184.157C550.736 134.51 575.447 122.468 562.493 84.3574C544.568 31.6274 481.907 9.52995 472.908 6.35146C443.598 -3.98812 406.993 -0.296769 334.995 7.49749L334.988 7.49116Z" fill="#5ED4CA"/>
<path d="M239.483 204.531C229.99 204.531 221.07 200.935 214.362 194.407C207.654 187.879 203.958 179.192 203.958 169.96C203.958 160.729 207.654 152.042 214.362 145.514C221.07 138.986 229.997 135.39 239.483 135.39C248.969 135.39 257.895 138.986 264.603 145.514C271.311 152.042 275.007 160.729 275.007 169.96C275.007 179.192 271.311 187.879 264.603 194.407C257.895 200.935 248.969 204.531 239.483 204.531ZM239.483 137.473C230.569 137.473 222.183 140.854 215.878 146.989C209.573 153.125 206.099 161.286 206.099 169.96C206.099 178.635 209.573 186.796 215.878 192.932C222.183 199.067 230.569 202.448 239.483 202.448C248.396 202.448 256.783 199.067 263.087 192.932C269.392 186.796 272.866 178.635 272.866 169.96C272.866 161.286 269.392 153.125 263.087 146.989C256.783 140.854 248.396 137.473 239.483 137.473Z" fill="white"/>
<path d="M216.971 392.03C200.953 392.03 187.921 379.348 187.921 363.759C187.921 348.171 200.953 335.489 216.971 335.489C232.99 335.489 246.022 348.171 246.022 363.759C246.022 379.348 232.99 392.03 216.971 392.03ZM216.971 337.584C202.137 337.584 190.068 349.33 190.068 363.766C190.068 378.202 202.137 389.947 216.971 389.947C231.805 389.947 243.875 378.202 243.875 363.766C243.875 349.33 231.805 337.584 216.971 337.584Z" fill="white"/>
<path d="M464.444 391.214C457.384 391.214 450.527 389.865 444.079 387.212C437.846 384.648 432.251 380.975 427.449 376.302C422.647 371.63 418.874 366.185 416.239 360.119C413.513 353.844 412.127 347.171 412.127 340.301C412.127 333.431 413.513 326.757 416.239 320.483C418.874 314.417 422.647 308.972 427.449 304.299C432.251 299.626 437.846 295.954 444.079 293.39C450.527 290.737 457.384 289.388 464.444 289.388C471.503 289.388 478.361 290.737 484.808 293.39C491.041 295.954 496.637 299.626 501.438 304.299C506.24 308.972 510.014 314.417 512.649 320.483C515.375 326.757 516.761 333.431 516.761 340.301C516.761 347.171 515.375 353.844 512.649 360.119C510.014 366.185 506.24 371.63 501.438 376.302C496.637 380.975 491.041 384.648 484.808 387.212C478.361 389.865 471.503 391.214 464.444 391.214ZM464.444 291.471C451.041 291.471 438.445 296.549 428.965 305.774C419.485 314.999 414.267 327.258 414.267 340.301C414.267 353.344 419.485 365.602 428.965 374.827C438.438 384.046 451.041 389.13 464.444 389.13C477.847 389.13 490.443 384.052 499.922 374.827C509.395 365.608 514.62 353.344 514.62 340.301C514.62 327.258 509.402 314.999 499.922 305.774C490.443 296.549 477.847 291.471 464.444 291.471Z" fill="white"/>
<path d="M399.403 151.895L379.731 142.33L364.053 172.864L383.725 182.43L399.403 151.895Z" fill="#515151"/>
<path d="M399.067 148.433L383.137 140.687L366.101 173.867L382.031 181.613L399.067 148.433Z" fill="#222221"/>
<path d="M385.404 145.627L383.716 144.807L382.71 146.766L384.398 147.587L385.404 145.627Z" fill="#5ED4CA"/>
<path d="M383.782 148.775L382.094 147.955L381.088 149.914L382.776 150.735L383.782 148.775Z" fill="#5ED4CA"/>
<path d="M382.036 152.167L380.348 151.346L379.342 153.306L381.03 154.127L382.036 152.167Z" fill="#5ED4CA"/>
<path d="M380.299 155.556L378.611 154.735L377.605 156.695L379.293 157.516L380.299 155.556Z" fill="#5ED4CA"/>
<path d="M378.56 158.948L376.872 158.127L375.866 160.087L377.554 160.908L378.56 158.948Z" fill="#5ED4CA"/>
<path d="M376.823 162.337L375.135 161.516L374.129 163.476L375.817 164.296L376.823 162.337Z" fill="#5ED4CA"/>
<path d="M375.08 165.729L373.392 164.908L372.386 166.868L374.074 167.689L375.08 165.729Z" fill="#5ED4CA"/>
<path d="M373.34 169.124L371.652 168.303L370.646 170.263L372.334 171.083L373.34 169.124Z" fill="#5ED4CA"/>
<path d="M388.86 147.307L387.172 146.486L386.166 148.446L387.853 149.267L388.86 147.307Z" fill="#5ED4CA"/>
<path d="M387.243 150.464L385.555 149.643L384.549 151.603L386.237 152.424L387.243 150.464Z" fill="#5ED4CA"/>
<path d="M385.5 153.85L383.812 153.03L382.806 154.989L384.494 155.81L385.5 153.85Z" fill="#5ED4CA"/>
<path d="M383.755 157.242L382.067 156.421L381.061 158.381L382.749 159.202L383.755 157.242Z" fill="#5ED4CA"/>
<path d="M382.018 160.631L380.33 159.81L379.324 161.77L381.011 162.591L382.018 160.631Z" fill="#5ED4CA"/>
<path d="M380.278 164.023L378.591 163.202L377.584 165.162L379.272 165.983L380.278 164.023Z" fill="#5ED4CA"/>
<path d="M378.541 167.412L376.854 166.591L375.847 168.551L377.535 169.372L378.541 167.412Z" fill="#5ED4CA"/>
<path d="M376.796 170.804L375.108 169.983L374.101 171.943L375.789 172.763L376.796 170.804Z" fill="#5ED4CA"/>
<path d="M392.194 148.93L390.506 148.109L389.5 150.069L391.188 150.89L392.194 148.93Z" fill="#5ED4CA"/>
<path d="M390.584 152.081L388.896 151.26L387.89 153.22L389.578 154.04L390.584 152.081Z" fill="#5ED4CA"/>
<path d="M388.838 155.472L387.15 154.652L386.144 156.611L387.832 157.432L388.838 155.472Z" fill="#5ED4CA"/>
<path d="M387.101 158.861L385.413 158.041L384.407 160L386.095 160.821L387.101 158.861Z" fill="#5ED4CA"/>
<path d="M385.356 162.253L383.668 161.432L382.661 163.392L384.349 164.213L385.356 162.253Z" fill="#5ED4CA"/>
<path d="M383.619 165.642L381.931 164.821L380.924 166.781L382.612 167.602L383.619 165.642Z" fill="#5ED4CA"/>
<path d="M381.873 169.04L380.185 168.219L379.179 170.179L380.866 171L381.873 169.04Z" fill="#5ED4CA"/>
<path d="M380.13 172.426L378.442 171.606L377.436 173.565L379.124 174.386L380.13 172.426Z" fill="#5ED4CA"/>
<path d="M395.616 150.591L393.928 149.77L392.922 151.73L394.61 152.551L395.616 150.591Z" fill="#5ED4CA"/>
<path d="M394 153.746L392.312 152.925L391.306 154.885L392.994 155.705L394 153.746Z" fill="#5ED4CA"/>
<path d="M392.263 157.134L390.575 156.314L389.569 158.273L391.257 159.094L392.263 157.134Z" fill="#5ED4CA"/>
<path d="M390.518 160.526L388.83 159.705L387.824 161.665L389.511 162.486L390.518 160.526Z" fill="#5ED4CA"/>
<path d="M388.781 163.915L387.093 163.094L386.087 165.054L387.774 165.875L388.781 163.915Z" fill="#5ED4CA"/>
<path d="M387.035 167.307L385.347 166.486L384.341 168.446L386.029 169.267L387.035 167.307Z" fill="#5ED4CA"/>
<path d="M385.298 170.696L383.61 169.875L382.604 171.835L384.291 172.656L385.298 170.696Z" fill="#5ED4CA"/>
<path d="M376.55 175.156L374.688 174.25L373.132 177.28L374.995 178.186L376.55 175.156Z" fill="#515151"/>
<path d="M383.552 174.088L381.864 173.267L380.858 175.227L382.546 176.047L383.552 174.088Z" fill="#5ED4CA"/>
<path d="M386.269 140.971L385.867 140.776L385.149 142.175L385.55 142.37L386.269 140.971Z" fill="#222221"/>
<path d="M386.544 141.576C387.475 141.576 388.229 140.841 388.229 139.936C388.229 139.03 387.475 138.296 386.544 138.296C385.613 138.296 384.859 139.03 384.859 139.936C384.859 140.841 385.613 141.576 386.544 141.576Z" fill="#515151"/>
<path d="M386.544 140.354C386.781 140.354 386.973 140.167 386.973 139.936C386.973 139.705 386.781 139.518 386.544 139.518C386.307 139.518 386.115 139.705 386.115 139.936C386.115 140.167 386.307 140.354 386.544 140.354Z" fill="#222221"/>
<path d="M408.179 167.371L393.361 160.166L381.548 183.173L396.366 190.378L408.179 167.371Z" fill="#515151"/>
<path d="M407.931 164.766L395.93 158.93L383.096 183.925L395.097 189.761L407.931 164.766Z" fill="#222221"/>
<path d="M397.641 162.657L396.366 162.038L395.61 163.51L396.885 164.13L397.641 162.657Z" fill="#5ED4CA"/>
<path d="M396.419 165.028L395.145 164.408L394.388 165.881L395.663 166.501L396.419 165.028Z" fill="#5ED4CA"/>
<path d="M395.112 167.584L393.837 166.964L393.081 168.437L394.356 169.057L395.112 167.584Z" fill="#5ED4CA"/>
<path d="M393.796 170.136L392.521 169.516L391.765 170.989L393.04 171.609L393.796 170.136Z" fill="#5ED4CA"/>
<path d="M392.483 172.689L391.208 172.069L390.452 173.542L391.726 174.162L392.483 172.689Z" fill="#5ED4CA"/>
<path d="M391.172 175.251L389.898 174.631L389.142 176.104L390.416 176.723L391.172 175.251Z" fill="#5ED4CA"/>
<path d="M389.859 177.797L388.584 177.178L387.828 178.65L389.103 179.27L389.859 177.797Z" fill="#5ED4CA"/>
<path d="M388.549 180.359L387.274 179.739L386.518 181.212L387.793 181.832L388.549 180.359Z" fill="#5ED4CA"/>
<path d="M400.24 163.922L398.965 163.302L398.209 164.775L399.484 165.395L400.24 163.922Z" fill="#5ED4CA"/>
<path d="M399.024 166.295L397.749 165.676L396.993 167.148L398.268 167.768L399.024 166.295Z" fill="#5ED4CA"/>
<path d="M397.708 168.854L396.433 168.234L395.677 169.707L396.952 170.327L397.708 168.854Z" fill="#5ED4CA"/>
<path d="M396.4 171.403L395.126 170.784L394.37 172.256L395.644 172.876L396.4 171.403Z" fill="#5ED4CA"/>
<path d="M395.084 173.962L393.81 173.342L393.053 174.815L394.328 175.435L395.084 173.962Z" fill="#5ED4CA"/>
<path d="M393.778 176.515L392.503 175.895L391.747 177.368L393.021 177.988L393.778 176.515Z" fill="#5ED4CA"/>
<path d="M392.47 179.065L391.196 178.445L390.439 179.918L391.714 180.537L392.47 179.065Z" fill="#5ED4CA"/>
<path d="M391.154 181.623L389.88 181.004L389.124 182.476L390.398 183.096L391.154 181.623Z" fill="#5ED4CA"/>
<path d="M402.764 165.142L401.489 164.522L400.733 165.994L402.008 166.614L402.764 165.142Z" fill="#5ED4CA"/>
<path d="M401.535 167.519L400.261 166.899L399.505 168.371L400.779 168.991L401.535 167.519Z" fill="#5ED4CA"/>
<path d="M400.225 170.074L398.95 169.454L398.194 170.926L399.469 171.546L400.225 170.074Z" fill="#5ED4CA"/>
<path d="M398.918 172.627L397.644 172.007L396.888 173.479L398.162 174.099L398.918 172.627Z" fill="#5ED4CA"/>
<path d="M397.608 175.182L396.333 174.562L395.577 176.035L396.852 176.654L397.608 175.182Z" fill="#5ED4CA"/>
<path d="M396.295 177.735L395.021 177.115L394.264 178.588L395.539 179.207L396.295 177.735Z" fill="#5ED4CA"/>
<path d="M394.985 180.296L393.71 179.677L392.954 181.149L394.229 181.769L394.985 180.296Z" fill="#5ED4CA"/>
<path d="M393.672 182.843L392.397 182.223L391.641 183.696L392.915 184.316L393.672 182.843Z" fill="#5ED4CA"/>
<path d="M405.339 166.396L404.064 165.776L403.308 167.249L404.582 167.869L405.339 166.396Z" fill="#5ED4CA"/>
<path d="M404.117 168.767L402.842 168.147L402.086 169.619L403.361 170.239L404.117 168.767Z" fill="#5ED4CA"/>
<path d="M402.806 171.328L401.532 170.708L400.776 172.181L402.05 172.801L402.806 171.328Z" fill="#5ED4CA"/>
<path d="M401.493 173.881L400.219 173.261L399.462 174.734L400.737 175.354L401.493 173.881Z" fill="#5ED4CA"/>
<path d="M400.183 176.436L398.908 175.817L398.152 177.289L399.427 177.909L400.183 176.436Z" fill="#5ED4CA"/>
<path d="M398.87 178.989L397.595 178.37L396.839 179.842L398.114 180.462L398.87 178.989Z" fill="#5ED4CA"/>
<path d="M397.562 181.545L396.288 180.925L395.532 182.398L396.806 183.018L397.562 181.545Z" fill="#5ED4CA"/>
<path d="M390.966 184.905L389.563 184.223L388.391 186.505L389.794 187.187L390.966 184.905Z" fill="#515151"/>
<path d="M396.246 184.097L394.972 183.478L394.216 184.95L395.49 185.57L396.246 184.097Z" fill="#5ED4CA"/>
<path d="M229.002 157.946L215.4 167.146L230.483 188.265L244.085 179.065L229.002 157.946Z" fill="#515151"/>
<path d="M226.531 156.908L215.514 164.359L231.901 187.303L242.917 179.852L226.531 156.908Z" fill="#222221"/>
<path d="M219.688 164.685L218.518 165.476L219.484 166.828L220.654 166.036L219.688 164.685Z" fill="#5ED4CA"/>
<path d="M221.251 166.868L220.081 167.66L221.046 169.012L222.216 168.22L221.251 166.868Z" fill="#5ED4CA"/>
<path d="M222.923 169.208L221.753 170L222.719 171.352L223.889 170.56L222.923 169.208Z" fill="#5ED4CA"/>
<path d="M224.597 171.552L223.427 172.344L224.392 173.695L225.562 172.904L224.597 171.552Z" fill="#5ED4CA"/>
<path d="M226.279 173.897L225.109 174.689L226.074 176.041L227.244 175.249L226.279 173.897Z" fill="#5ED4CA"/>
<path d="M227.946 176.241L226.776 177.032L227.741 178.384L228.911 177.593L227.946 176.241Z" fill="#5ED4CA"/>
<path d="M229.619 178.591L228.449 179.382L229.415 180.734L230.585 179.943L229.619 178.591Z" fill="#5ED4CA"/>
<path d="M231.302 180.936L230.132 181.728L231.097 183.079L232.267 182.288L231.302 180.936Z" fill="#5ED4CA"/>
<path d="M222.087 163.067L220.917 163.859L221.882 165.211L223.052 164.419L222.087 163.067Z" fill="#5ED4CA"/>
<path d="M223.639 165.246L222.469 166.037L223.435 167.389L224.605 166.598L223.639 165.246Z" fill="#5ED4CA"/>
<path d="M225.318 167.586L224.148 168.377L225.113 169.729L226.283 168.938L225.318 167.586Z" fill="#5ED4CA"/>
<path d="M226.995 169.935L225.825 170.726L226.79 172.078L227.96 171.287L226.995 169.935Z" fill="#5ED4CA"/>
<path d="M228.662 172.285L227.492 173.076L228.457 174.428L229.627 173.637L228.662 172.285Z" fill="#5ED4CA"/>
<path d="M230.341 174.625L229.171 175.416L230.136 176.768L231.306 175.977L230.341 174.625Z" fill="#5ED4CA"/>
<path d="M232.018 176.974L230.848 177.765L231.813 179.117L232.983 178.326L232.018 176.974Z" fill="#5ED4CA"/>
<path d="M233.685 179.318L232.515 180.109L233.48 181.461L234.65 180.669L233.685 179.318Z" fill="#5ED4CA"/>
<path d="M224.394 161.507L223.224 162.298L224.189 163.65L225.359 162.859L224.394 161.507Z" fill="#5ED4CA"/>
<path d="M225.953 163.686L224.782 164.477L225.748 165.829L226.918 165.037L225.953 163.686Z" fill="#5ED4CA"/>
<path d="M227.623 166.035L226.453 166.826L227.419 168.178L228.589 167.386L227.623 166.035Z" fill="#5ED4CA"/>
<path d="M229.302 168.375L228.132 169.166L229.097 170.518L230.267 169.726L229.302 168.375Z" fill="#5ED4CA"/>
<path d="M230.975 170.718L229.805 171.51L230.771 172.861L231.941 172.07L230.975 170.718Z" fill="#5ED4CA"/>
<path d="M232.651 173.063L231.481 173.855L232.447 175.207L233.617 174.415L232.651 173.063Z" fill="#5ED4CA"/>
<path d="M234.325 175.407L233.155 176.199L234.12 177.55L235.29 176.759L234.325 175.407Z" fill="#5ED4CA"/>
<path d="M235.998 177.751L234.828 178.542L235.793 179.894L236.963 179.103L235.998 177.751Z" fill="#5ED4CA"/>
<path d="M226.753 159.906L225.583 160.697L226.549 162.049L227.719 161.258L226.753 159.906Z" fill="#5ED4CA"/>
<path d="M228.321 162.086L227.151 162.877L228.117 164.229L229.287 163.438L228.321 162.086Z" fill="#5ED4CA"/>
<path d="M229.988 164.43L228.818 165.221L229.784 166.573L230.954 165.781L229.988 164.43Z" fill="#5ED4CA"/>
<path d="M231.661 166.773L230.491 167.565L231.457 168.916L232.627 168.125L231.661 166.773Z" fill="#5ED4CA"/>
<path d="M233.344 169.118L232.174 169.91L233.14 171.262L234.31 170.47L233.344 169.118Z" fill="#5ED4CA"/>
<path d="M235.011 171.462L233.841 172.254L234.806 173.605L235.976 172.814L235.011 171.462Z" fill="#5ED4CA"/>
<path d="M236.684 173.806L235.514 174.597L236.48 175.949L237.65 175.158L236.684 173.806Z" fill="#5ED4CA"/>
<path d="M236.559 181.046L235.272 181.917L236.768 184.012L238.056 183.141L236.559 181.046Z" fill="#515151"/>
<path d="M238.367 176.157L237.197 176.949L238.162 178.301L239.332 177.509L238.367 176.157Z" fill="#5ED4CA"/>
<path d="M455.289 283.645C458.282 279.086 461.646 274.027 461.646 274.027C461.646 274.027 457.228 270.14 452.869 265.986C448.92 266.417 445.751 266.759 441.802 267.189L443.825 284.886L455.283 283.645H455.289Z" fill="#515151"/>
<path d="M453.318 286.615C453.233 286.615 453.149 286.589 453.071 286.539C452.875 286.406 452.83 286.146 452.966 285.956L461.36 274.211L450.618 264.568C450.442 264.41 450.436 264.15 450.592 263.979C450.754 263.808 451.021 263.802 451.197 263.954L462.492 274.091L453.669 286.431C453.585 286.545 453.454 286.608 453.318 286.608V286.615Z" fill="#E42353"/>
<path d="M454.905 282.018L454.147 275.404L448.14 276.056L448.898 282.67L454.905 282.018Z" fill="#E42353"/>
<path d="M453.936 273.587L453.316 268.169L442.123 269.383L442.743 274.801L453.936 273.587Z" fill="#E42353"/>
<path d="M454.074 278.477L453.786 275.96L451.471 276.211L451.759 278.728L454.074 278.477Z" fill="#5ED4CA"/>
<path d="M454.411 281.48L454.123 278.963L451.808 279.214L452.096 281.731L454.411 281.48Z" fill="#5ED4CA"/>
<path d="M451.662 281.782L451.374 279.265L449.059 279.516L449.347 282.034L451.662 281.782Z" fill="#5ED4CA"/>
<path d="M451.325 278.773L451.037 276.256L448.722 276.507L449.01 279.024L451.325 278.773Z" fill="#5ED4CA"/>
<path d="M453.074 270.693L452.858 268.805L448.014 269.33L448.231 271.218L453.074 270.693Z" fill="#5ED4CA"/>
<path d="M453.35 273.071L453.126 271.114L448.283 271.639L448.507 273.596L453.35 273.071Z" fill="#5ED4CA"/>
<path d="M447.365 273.704C447.605 273.704 447.801 273.514 447.801 273.28C447.801 273.046 447.605 272.856 447.365 272.856C447.124 272.856 446.929 273.046 446.929 273.28C446.929 273.514 447.124 273.704 447.365 273.704Z" fill="#515151"/>
<path d="M190.822 368.097C190.582 373.498 190.276 379.519 190.276 379.519C190.276 379.519 196.099 380.722 202.007 382.197L210.966 375.758L200.094 361.436L190.822 368.103V368.097Z" fill="#515151"/>
<path d="M204.596 383.141C204.596 383.141 204.531 383.141 204.505 383.128L189.515 379.867L190.79 364.887C190.809 364.659 191.018 364.481 191.252 364.507C191.486 364.526 191.662 364.728 191.642 364.956L190.426 379.215L204.687 382.318C204.921 382.368 205.065 382.59 205.013 382.818C204.967 383.014 204.791 383.147 204.596 383.147V383.141Z" fill="#E42353"/>
<path d="M191.985 369.301L196.047 374.654L200.909 371.159L196.847 365.806L191.985 369.301Z" fill="#E42353"/>
<path d="M197.165 376.12L200.494 380.505L209.553 373.993L206.225 369.608L197.165 376.12Z" fill="#E42353"/>
<path d="M194.532 371.961L196.079 373.999L197.952 372.652L196.406 370.615L194.532 371.961Z" fill="#5ED4CA"/>
<path d="M192.686 369.529L194.233 371.566L196.106 370.219L194.56 368.182L192.686 369.529Z" fill="#5ED4CA"/>
<path d="M194.914 367.928L196.46 369.965L198.333 368.619L196.787 366.581L194.914 367.928Z" fill="#5ED4CA"/>
<path d="M196.756 370.362L198.302 372.399L200.176 371.053L198.629 369.015L196.756 370.362Z" fill="#5ED4CA"/>
<path d="M199.399 378.206L200.559 379.734L204.479 376.917L203.319 375.389L199.399 378.206Z" fill="#5ED4CA"/>
<path d="M197.941 376.284L199.143 377.868L203.063 375.05L201.861 373.466L197.941 376.284Z" fill="#5ED4CA"/>
<path d="M203.015 373.618C203.256 373.618 203.451 373.428 203.451 373.194C203.451 372.959 203.256 372.769 203.015 372.769C202.775 372.769 202.579 372.959 202.579 373.194C202.579 373.428 202.775 373.618 203.015 373.618Z" fill="#515151"/>
<path d="M311.781 421.181C385.318 421.181 444.932 363.168 444.932 291.604C444.932 220.041 385.318 162.027 311.781 162.027C238.244 162.027 178.63 220.041 178.63 291.604C178.63 363.168 238.244 421.181 311.781 421.181Z" fill="#0071BB"/>
<path d="M281.669 280.967C274.675 277.586 269.62 283.272 260.745 280.682C258.533 280.036 257.492 279.289 255.443 279.536C253.094 279.821 251.259 281.182 247.778 284.696C244.493 288.014 242.508 290.458 241.298 291.864C235.494 298.582 233.269 297.822 230.101 301.899C224.128 309.586 226.008 320.039 226.561 323.123C227.244 326.916 228.767 335.381 235.696 340.041C239.125 342.346 242.697 342.821 249.841 343.77C259.327 345.03 262.411 343.498 267.525 346.354C268.8 347.063 272.535 349.146 274.304 353.236C276.237 357.7 273.569 359.372 274.896 364.133C276.686 370.579 282.463 370.724 283.738 376.752C284.61 380.868 282.092 381.646 281.969 386.503C281.695 397.374 293.992 405.409 294.936 406.004C298.404 408.201 305.469 412.69 312.32 410.595C319.549 408.385 321.592 400.356 329.12 400.268C331.019 400.242 333.121 400.73 334.422 399.407C336.029 397.773 334.344 395.506 335.307 392.809C336.849 388.497 342.867 389.561 345.919 385.642C349.419 381.14 343.895 376.644 345.626 369.008C347.344 361.41 353.778 361.556 362.126 350.083C365.633 345.258 371.521 335.584 368.905 332.874C367.162 331.069 362.308 336.882 355.353 336.027C350.18 335.394 346.901 331.557 341.8 325.415C335.496 317.823 327.695 305.591 330.011 303.621C331.39 302.45 336.218 305.008 339.146 308.212C341.586 310.878 342.041 313.258 343.271 316.532C345.197 321.641 348.554 330.569 353.882 332.019C359.699 333.602 366.479 325.871 372.152 319.4C373.727 317.602 383.427 306.54 380.695 303.052C378.919 300.779 372.204 302.165 370.675 302.475C366.622 303.311 365.88 304.584 363.603 304.198C359.51 303.501 355.808 298.347 357.123 295.593C358.105 293.529 361.671 293.32 362.132 293.301C365.887 293.124 367.682 295.428 370.682 296.745C377.162 299.588 380.669 294.035 391.014 294.453C394.306 294.586 402.218 294.903 406.043 299.905C410.383 305.578 407 314.062 410.461 315.392C412.738 316.266 415.933 313.265 417.241 314.531C418.145 315.405 417.123 317.298 417.833 317.684C418.6 318.102 421.014 316.525 421.665 314.531C422.79 311.061 417.891 308.396 415.477 303.634C410.097 293.016 419.446 276.623 423.727 276.965C425.978 277.143 427.28 281.986 429.329 281.556C430.656 281.277 430.585 279.143 431.984 278.687C434.586 277.845 437.937 284.285 439.349 283.848C441.457 283.196 440.435 266.885 433.161 247.713C427.937 233.935 426.896 238.222 402.81 200.682C399.309 195.23 392.465 184.428 383.948 184.625C381.443 184.681 380.884 185.638 378.053 185.486C371.41 185.118 368.704 179.496 361.553 174.013C355.86 169.65 350.616 167.877 344.169 165.693C331.794 161.508 322.125 161.869 322.067 162.248C321.995 162.673 333.915 162.749 338.274 169.707C339.009 170.879 338.983 171.379 340.629 174.298C343.967 180.211 345.607 180.895 345.346 182.326C344.52 186.834 327.025 187.246 327.077 188.632C327.109 189.532 334.455 188.303 337.981 192.362C340.831 195.642 340.499 201.612 337.688 205.266C336.368 206.982 333.804 209.096 332.386 208.419C330.115 207.336 332.88 200.118 330.915 199.244C329.386 198.567 325.183 201.796 325.313 204.981C325.489 209.166 333.056 210.629 332.679 213.585C332.412 215.707 328.215 217.302 324.721 217.6C316.927 218.271 314.539 212.325 308.514 213.301C304.532 213.946 305.541 216.549 297.024 221.905C291.956 225.096 289.796 225.305 288.182 228.212C286.204 231.783 286.543 236.721 288.475 237.677C289.945 238.406 291.956 236.639 292.307 237.101C292.756 237.69 289.744 240.824 286.412 243.408C285.866 243.832 285.345 244.212 279.932 247.707C275.033 250.873 274.792 250.987 274.33 251.151C269.737 252.778 266.041 251.05 265.488 252.297C265.072 253.241 267.199 254.209 268.436 257.457C268.754 258.293 269.893 261.288 268.728 262.333C267.681 263.276 265.755 261.744 260.771 261.187C258.11 260.889 256.757 260.75 255.761 261.472C254.109 262.668 255.15 264.517 253.699 268.639C252.502 272.039 251.109 272.736 251.636 274.376C252.216 276.186 254.519 277.181 255.319 277.529C256.236 277.928 257.011 278.048 258.527 278.282C261.929 278.801 263.634 279.061 264.825 278.498C266.803 277.56 265.833 275.965 268.143 273.768C270.661 271.374 273.042 272.096 274.552 269.576C275.326 268.285 275.072 267.474 275.879 267.101C277.336 266.429 278.748 268.797 281.181 268.5C283.101 268.266 283.843 266.594 284.831 266.993C285.599 267.303 285.293 268.38 285.938 269.899C286.308 270.773 286.783 271.305 291.351 274.952C293.433 276.617 294.24 277.225 294.448 278.396C294.571 279.086 294.545 280.321 293.784 280.872C292.476 281.815 290.212 279.878 289.256 280.764C288.729 281.245 288.898 282.297 289.256 282.917C289.9 284.019 291.487 284.329 292.574 283.993C293.882 283.588 293.407 282.556 295.56 280.549C296.224 279.928 296.972 279.371 296.998 278.504C297.011 277.947 296.725 277.573 296.888 277.427C297.258 277.111 298.885 278.839 299.432 278.504C299.88 278.225 299.607 276.528 298.657 275.167C297.402 273.369 296.146 273.856 294.129 272.046C293.862 271.805 291.657 269.773 291.364 266.778C291.292 266.018 291.292 264.733 291.696 264.625C292.21 264.492 292.658 266.455 294.571 268.494C296.12 270.146 296.914 270.026 298.436 271.615C299.666 272.894 300.232 274.097 300.98 275.699C303.205 280.511 302.34 282.765 304.734 284.842C305.02 285.089 306.452 286.33 307.499 285.918C308.547 285.5 308.41 283.727 309.269 283.55C310.245 283.354 311.201 285.475 311.702 285.272C312.106 285.108 312.093 283.462 311.371 281.936C310.102 279.27 307.545 278.846 307.721 277.744C307.87 276.807 309.9 275.876 311.149 276.452C312.691 277.168 311.741 279.593 313.583 282.581C314.051 283.348 315.222 285.247 317.337 286.026C318.261 286.361 319.243 286.444 326.068 285.165C328.807 284.652 329.49 284.481 330.154 284.949C332.106 286.33 330.694 290.99 330.597 291.294C330.304 292.225 329.451 294.934 327.057 296.562C323.049 299.291 319.282 295.853 309.152 296.239C304.305 296.422 304.695 297.227 300.642 297.1C298.631 297.037 288.293 296.714 286.165 291.724C285.007 289.002 287.115 286.836 285.28 283.873C284.259 282.227 282.71 281.454 281.708 280.967H281.669Z" fill="#1CA466"/>
<path d="M365.145 377.55C364.793 377.487 364.592 379.025 363.525 380.488C362.035 382.527 360.48 382.216 356.674 384.787C354.845 386.022 353.928 386.642 353.433 387.51C352.243 389.586 353.232 391.15 351.813 393.601C350.955 395.082 349.998 395.544 350.193 395.893C350.551 396.539 354.266 395.817 357.337 394.031C363.726 390.308 365.288 383.153 365.444 379.981C365.457 379.728 365.561 377.62 365.151 377.544L365.145 377.55Z" fill="#1CA466"/>
<path d="M178.656 295.086C178.74 295.074 178.701 303.83 182.631 315.449C185.858 324.984 187.472 329.746 191.174 334.235C194.271 337.983 198.389 341.428 197.361 344.847C196.776 346.797 194.941 347.323 194.414 349.722C193.874 352.16 195.129 354.515 196.327 356.174C193.692 351.824 190.1 345.29 186.899 336.958C178.33 314.677 178.519 295.105 178.649 295.086H178.656Z" fill="#1CA466"/>
<path d="M211.538 213.915C216.698 211.496 220.445 209.805 223.62 211.192C226.321 212.37 225.904 214.599 228.038 215.352C234.011 217.454 246.731 203.391 244.096 198.573C243.094 196.737 239.951 196.414 240.12 195.559C240.296 194.66 243.751 195.395 246.9 193.406C249.184 191.963 250.83 189.392 250.29 188.677C249.073 187.068 237.297 195.629 235.703 193.837C234.245 192.203 240.862 181.44 248.52 181.364C250.062 181.351 253.341 181.75 254.265 183.656C255.065 185.315 253.569 187.018 254.265 187.67C255.651 188.962 262.899 183.504 263.25 183.941C263.575 184.34 257.258 188.436 257.947 189.962C258.858 191.988 272.248 189.994 273.419 185.087C274.005 182.636 271.168 181.003 272.092 179.065C273.27 176.602 279.685 175.412 282.704 178.489C284.675 180.503 284.708 183.858 283.589 186.233C282.066 189.456 278.813 190.013 271.799 192.685C255.8 198.782 252.912 203.423 252.053 205.019C251.832 205.424 249.372 210.097 251.018 211.756C253.055 213.801 258.689 208.558 269.145 207.596C276.568 206.912 277.082 209.248 282.405 207.881C289.932 205.943 295.645 199.542 296.842 193.539C297.044 192.539 297.968 187.892 295.664 186.081C294.864 185.454 294.298 185.657 293.602 184.935C291.819 183.08 293.999 180.135 292.717 178.483C290.986 176.241 285.124 179.224 283.875 177.476C282.919 176.146 284.896 172.392 288 169.878C292.697 166.066 297.688 166.953 310.544 165.288C314.793 164.737 318.228 164.129 320.414 163.711C316.218 163.015 309.568 162.16 301.409 162.28C265.423 162.787 239.561 181.541 231.714 187.233C230.231 188.309 219.691 195.509 209.32 207.596C204.7 212.978 201.187 218.062 201.955 218.777C202.547 219.335 205.247 216.846 211.532 213.902L211.538 213.915Z" fill="#1CA466"/>
<path d="M299.015 163.319H311.468C312.733 163.319 313.758 162.322 313.758 161.093C313.758 159.864 312.733 158.867 311.468 158.867H299.015C297.75 158.867 296.725 159.864 296.725 161.093C296.725 162.322 297.75 163.319 299.015 163.319Z" fill="#1CA466"/>
<path d="M311.722 161.615C313.375 161.615 314.715 160.311 314.715 158.703C314.715 157.094 313.375 155.79 311.722 155.79C310.069 155.79 308.729 157.094 308.729 158.703C308.729 160.311 310.069 161.615 311.722 161.615Z" fill="#1CA466"/>
<path d="M302.73 162.249C306.043 162.249 308.729 160.4 308.729 158.12C308.729 155.84 306.043 153.992 302.73 153.992C299.417 153.992 296.731 155.84 296.731 158.12C296.731 160.4 299.417 162.249 302.73 162.249Z" fill="#1CA466"/>
<path d="M308.059 159.399C309.033 159.399 309.822 158.427 309.822 157.228C309.822 156.028 309.033 155.056 308.059 155.056C307.085 155.056 306.296 156.028 306.296 157.228C306.296 158.427 307.085 159.399 308.059 159.399Z" fill="#1CA466"/>
<path d="M297.33 161.28C298.11 161.28 298.742 160.665 298.742 159.906C298.742 159.147 298.11 158.532 297.33 158.532C296.55 158.532 295.918 159.147 295.918 159.906C295.918 160.665 296.55 161.28 297.33 161.28Z" fill="#1CA466"/>
<path d="M354.689 252.443L359.777 249.448C362.067 248.099 364.852 248.46 365.964 250.246L368.112 253.69C369.224 255.482 368.261 258.046 365.978 259.395L360.89 262.39C360.558 262.586 360.154 262.535 359.992 262.276L354.383 253.266C354.221 253.006 354.357 252.639 354.696 252.443H354.689Z" fill="#222221"/>
<path d="M357.278 255.518C357.702 255.268 357.838 254.73 357.581 254.318C357.324 253.905 356.772 253.773 356.348 254.023L352.213 256.461C351.789 256.711 351.654 257.248 351.911 257.661C352.168 258.074 352.72 258.206 353.144 257.956L357.278 255.518Z" fill="#222221"/>
<path d="M360.221 260.245C360.645 259.995 360.781 259.458 360.524 259.045C360.267 258.633 359.715 258.501 359.291 258.751L355.156 261.189C354.732 261.439 354.597 261.976 354.853 262.389C355.11 262.801 355.663 262.933 356.087 262.683L360.221 260.245Z" fill="#222221"/>
<path d="M260.973 315.766L255.677 313.138C253.289 311.954 252.138 309.466 253.113 307.598L254.994 304.008C255.97 302.146 258.715 301.583 261.103 302.767L266.399 305.394C266.744 305.565 266.913 305.926 266.77 306.199L261.858 315.588C261.715 315.861 261.318 315.937 260.973 315.766Z" fill="#222221"/>
<path d="M262.307 312.036C261.865 311.817 261.325 311.989 261.1 312.419C260.875 312.849 261.051 313.375 261.493 313.594L265.801 315.728C266.242 315.947 266.783 315.776 267.008 315.346C267.233 314.916 267.057 314.39 266.615 314.171L262.307 312.036Z" fill="#222221"/>
<path d="M264.886 307.111C264.444 306.892 263.903 307.063 263.678 307.493C263.453 307.923 263.629 308.45 264.071 308.669L268.379 310.803C268.821 311.022 269.362 310.851 269.587 310.421C269.812 309.991 269.636 309.464 269.194 309.245L264.886 307.111Z" fill="#222221"/>
<path d="M360.343 315.886L364.241 320.255C365.997 322.224 366.108 324.953 364.481 326.327L361.358 328.967C359.738 330.341 356.973 329.854 355.216 327.884L351.319 323.516C351.065 323.231 351.046 322.838 351.287 322.636L359.458 315.728C359.693 315.531 360.09 315.601 360.35 315.886H360.343Z" fill="#222221"/>
<path d="M357.674 318.907C358 319.271 358.567 319.31 358.941 318.993C359.315 318.677 359.355 318.125 359.03 317.761L355.859 314.21C355.534 313.845 354.966 313.807 354.592 314.123C354.218 314.44 354.178 314.992 354.503 315.356L357.674 318.907Z" fill="#222221"/>
<path d="M353.377 322.53C353.703 322.894 354.27 322.933 354.644 322.616C355.018 322.3 355.058 321.748 354.733 321.384L351.562 317.833C351.237 317.469 350.67 317.43 350.295 317.746C349.921 318.063 349.881 318.615 350.207 318.979L353.377 322.53Z" fill="#222221"/>
<path d="M361.443 256.755C360.981 256.755 360.539 256.495 360.337 256.058C360.057 255.463 360.337 254.76 360.942 254.494C362.198 253.937 365.49 252.342 368.912 249.454C373.558 245.535 376.674 240.837 378.171 235.474C379.752 229.807 379.394 223.919 377.091 217.973C375.366 213.503 373.076 210.458 372.413 209.628C367.227 203.126 360.285 200.428 355.216 198.453C350.656 196.68 347.051 195.274 346.96 191.938C346.888 189.209 349.387 186.385 354.006 183.979C358.073 181.864 363.284 180.363 367.962 179.971C376.453 179.255 384.918 181.877 393.128 187.771C399.082 192.045 403.142 196.845 404.612 198.713C405.022 199.232 404.918 199.973 404.384 200.371C403.851 200.77 403.09 200.669 402.68 200.15C401.274 198.364 397.384 193.768 391.684 189.677C383.961 184.137 376.05 181.661 368.17 182.326C363.805 182.693 358.938 184.093 355.151 186.062C351.495 187.961 349.341 190.133 349.393 191.868C349.439 193.565 351.853 194.591 356.121 196.25C361.449 198.32 368.743 201.157 374.338 208.166C375.054 209.058 377.526 212.351 379.374 217.131C381.853 223.558 382.243 229.934 380.519 236.088C378.893 241.913 375.523 247.01 370.5 251.24C366.967 254.216 363.623 255.906 361.944 256.647C361.781 256.717 361.612 256.755 361.443 256.755Z" fill="#222221"/>
<path d="M198.91 332.272C198.91 332.272 198.871 332.272 198.858 332.272C192.579 332.228 186.743 323.744 181.499 307.06C178.688 298.119 177.608 288.565 178.278 278.662C178.864 270.026 180.699 262.7 181.681 258.768C183.835 250.144 187.036 241.761 191.187 233.859C191.493 233.277 192.228 233.049 192.826 233.347C193.425 233.644 193.659 234.36 193.353 234.942C189.287 242.686 186.157 250.892 184.043 259.338C182.703 264.688 181.232 271.052 180.705 278.827C180.048 288.438 181.102 297.708 183.822 306.376C190.243 326.808 196.008 329.892 198.877 329.917C198.89 329.917 198.897 329.917 198.91 329.917C202.469 329.917 204.908 325.162 207.739 319.66C211.298 312.733 215.728 304.109 224.629 300.468C229.873 298.322 236.028 298.183 242.925 300.051C248.247 301.488 254.141 304.166 260.446 308.009C261.012 308.358 261.188 309.086 260.83 309.643C260.472 310.2 259.724 310.365 259.151 310.017C245.403 301.64 234.102 299.158 225.572 302.653C217.505 305.952 213.477 313.797 209.918 320.717C206.73 326.922 203.978 332.279 198.916 332.279L198.91 332.272Z" fill="#222221"/>
<path d="M368.405 395.177C365.796 395.177 363.922 394.519 362.809 393.214C361.189 391.315 362.048 388.883 362.328 388.086C362.939 386.344 364.104 384.325 365.451 381.988C368.632 376.467 372.985 368.913 373.434 359.087C373.948 347.873 369.231 336.293 359.413 324.668C358.983 324.161 359.062 323.414 359.582 323.003C360.103 322.585 360.87 322.661 361.293 323.167C371.502 335.254 376.401 347.379 375.861 359.194C375.386 369.585 370.864 377.423 367.565 383.147C364.943 387.699 363.512 390.34 364.676 391.707C366.329 393.645 372.425 392.98 380.207 390.017C388.515 386.851 397.937 381.475 405.412 375.625C413.064 369.642 419.531 362.613 425.185 354.135C440.761 330.784 443.825 305.242 443.656 287.925C443.656 287.273 444.19 286.735 444.86 286.729H444.873C445.536 286.729 446.083 287.248 446.089 287.9C446.194 298.227 445.166 308.326 443.032 317.912C439.967 331.671 434.651 344.29 427.228 355.421C421.509 363.994 414.684 371.414 406.935 377.467C399.277 383.457 389.615 388.972 381.092 392.22C376.889 393.822 373.096 394.816 370.116 395.095C369.511 395.152 368.938 395.177 368.398 395.177H368.405Z" fill="#222221"/>
<path d="M318.014 157.595H312.776C310.832 157.595 309.256 159.127 309.256 161.017C309.256 162.907 310.832 164.439 312.776 164.439H318.014C319.958 164.439 321.533 162.907 321.533 161.017C321.533 159.127 319.958 157.595 318.014 157.595Z" fill="white"/>
<path d="M317.2 87.2374H313.589L311.728 161.02H319.061L317.2 87.2374Z" fill="white"/>
<path d="M315.476 88.7064C317.222 88.7064 318.638 87.3287 318.638 85.6292C318.638 83.9297 317.222 82.552 315.476 82.552C313.73 82.552 312.314 83.9297 312.314 85.6292C312.314 87.3287 313.73 88.7064 315.476 88.7064Z" fill="white"/>
<path d="M319.067 85.9267C320.59 85.6101 321.748 85.0403 322.496 84.6034C332.75 90.7451 343.011 96.8868 353.264 103.028C353.343 103.13 353.583 103.497 353.557 104.01C353.525 104.535 353.225 104.871 353.141 104.96C340.681 98.6787 328.222 92.404 315.769 86.123C316.582 86.1926 317.734 86.199 319.074 85.9204L319.067 85.9267Z" fill="white"/>
<path d="M314.331 81.6655C313.283 80.5512 312.197 79.861 311.429 79.4495C311.702 67.7359 311.976 56.016 312.242 44.3025C312.295 44.1885 312.496 43.796 312.965 43.5617C313.446 43.3211 313.895 43.4034 314.019 43.4287C314.734 57.0608 315.457 70.6991 316.172 84.3312C315.821 83.6094 315.248 82.6406 314.324 81.6592L314.331 81.6655Z" fill="white"/>
<path d="M312.307 87.8579C311.859 89.3078 311.806 90.5678 311.846 91.4162C301.37 97.1907 290.889 102.972 280.414 108.746C280.284 108.759 279.841 108.797 279.392 108.518C278.937 108.239 278.774 107.822 278.735 107.701C290.401 100.116 302.06 92.5243 313.726 84.939C313.27 85.6038 312.711 86.5789 312.314 87.8515L312.307 87.8579Z" fill="white"/>
<path d="M426.253 217.8L423.635 214.134C422.667 212.779 420.753 212.444 419.361 213.386L419.355 213.39C417.963 214.331 417.618 216.194 418.586 217.549L421.204 221.215C422.172 222.57 424.086 222.905 425.478 221.963L425.484 221.959C426.876 221.017 427.221 219.155 426.253 217.8Z" fill="white"/>
<path d="M477.723 182.13L475.927 179.616L420.591 215.111L424.248 220.227L477.723 182.13Z" fill="white"/>
<path d="M478.048 182.814C479.572 182.814 480.807 181.612 480.807 180.129C480.807 178.646 479.572 177.444 478.048 177.444C476.525 177.444 475.29 178.646 475.29 180.129C475.29 181.612 476.525 182.814 478.048 182.814Z" fill="white"/>
<path d="M479.623 182.788C480.612 183.694 481.614 184.219 482.31 184.523C482.895 194.749 483.481 204.974 484.066 215.194C484.027 215.295 483.884 215.65 483.487 215.884C483.084 216.124 482.687 216.086 482.577 216.067C480.995 204.24 479.408 192.406 477.827 180.579C478.185 181.18 478.751 181.991 479.623 182.782V182.788Z" fill="white"/>
<path d="M480.403 177.356C480.703 176.064 480.67 174.962 480.586 174.222C489.363 168.567 498.133 162.913 506.91 157.265C507.021 157.246 507.411 157.189 507.814 157.405C508.231 157.62 508.393 157.975 508.439 158.076C498.745 165.376 489.05 172.677 479.349 179.983C479.707 179.382 480.137 178.495 480.397 177.362L480.403 177.356Z" fill="white"/>
<path d="M474.828 179.027C473.539 179.439 472.576 180.034 471.971 180.477C462.485 176.045 452.999 171.607 443.519 167.174C443.448 167.092 443.194 166.795 443.175 166.345C443.155 165.889 443.383 165.566 443.448 165.478C454.86 169.84 466.272 174.196 477.684 178.559C476.968 178.571 475.966 178.666 474.834 179.027H474.828Z" fill="white"/>
<path d="M187.465 346.801L189.7 350.699C190.527 352.141 192.397 352.657 193.879 351.853L193.884 351.85C195.365 351.045 195.896 349.225 195.07 347.784L192.835 343.886C192.008 342.444 190.138 341.928 188.657 342.732L188.651 342.735C187.17 343.539 186.639 345.36 187.465 346.801Z" fill="white"/>
<path d="M132.637 377.366L134.172 380.051L192.82 350.014L189.697 344.568L132.637 377.366Z" fill="white"/>
<path d="M132.11 382.014C133.633 382.014 134.868 380.812 134.868 379.329C134.868 377.846 133.633 376.645 132.11 376.645C130.586 376.645 129.351 377.846 129.351 379.329C129.351 380.812 130.586 382.014 132.11 382.014Z" fill="white"/>
<path d="M130.815 376.537C129.917 375.543 128.98 374.922 128.317 374.555C128.766 364.323 129.215 354.091 129.663 343.859C129.709 343.758 129.891 343.422 130.308 343.226C130.73 343.023 131.121 343.106 131.231 343.131C131.615 355.054 131.993 366.982 132.377 378.905C132.084 378.272 131.596 377.411 130.809 376.537H130.815Z" fill="white"/>
<path d="M129.494 381.868C129.065 383.122 128.987 384.223 128.993 384.971C119.689 389.757 110.385 394.544 101.088 399.331C100.977 399.337 100.587 399.362 100.197 399.109C99.8062 398.856 99.6761 398.489 99.6436 398.381C110.028 392.043 120.418 385.705 130.802 379.361C130.386 379.931 129.872 380.766 129.494 381.868Z" fill="white"/>
<path d="M135.207 380.735C136.534 380.45 137.543 379.95 138.2 379.563C147.191 384.882 156.183 390.207 165.175 395.525C165.24 395.614 165.461 395.931 165.435 396.38C165.409 396.836 165.149 397.134 165.077 397.216C154.16 391.783 143.242 386.357 132.331 380.925C133.047 380.982 134.049 380.982 135.213 380.735H135.207Z" fill="white"/>
<path d="M348.32 170.581C348.209 170.581 348.105 170.556 348.001 170.499C347.695 170.328 347.585 169.948 347.76 169.644C349.224 167.143 350.083 164.534 350.311 161.888C350.473 160.026 350.285 158.671 350.096 157.36C349.894 155.917 349.706 154.549 350.024 152.77C350.577 149.731 352.432 146.856 355.522 144.216C355.789 143.988 356.199 144.013 356.433 144.273C356.667 144.533 356.641 144.931 356.375 145.159C353.505 147.603 351.794 150.237 351.293 152.985C351.007 154.575 351.176 155.784 351.371 157.189C351.553 158.506 351.762 159.994 351.592 161.995C351.345 164.825 350.434 167.611 348.879 170.264C348.762 170.467 348.541 170.581 348.32 170.581Z" fill="#1CA466"/>
<path d="M356.264 141.322C355.997 140.037 355.496 139.138 355.138 138.6C354.696 137.941 354.306 137.371 353.596 137.226C353.544 137.213 352.744 137.068 352.25 137.536C351.677 138.087 351.924 139.075 352.054 139.581C352.445 141.12 353.642 142.076 354.273 142.5C353.941 142.342 353.453 142.139 352.848 141.943C352.237 141.747 351.788 141.607 351.183 141.569C350.623 141.538 349.894 141.493 349.276 141.943C349.12 142.057 348.762 142.323 348.671 142.779C348.541 143.418 349.048 143.937 349.14 144.032C349.471 144.374 349.881 144.501 350.181 144.577C351.56 144.919 353.154 144.786 353.889 144.697C353.089 144.976 352.503 145.337 352.119 145.615C351.625 145.976 350.877 146.521 350.46 147.483C350.278 147.901 350.109 148.294 350.265 148.711C350.499 149.332 351.319 149.668 351.976 149.611C352.438 149.573 352.803 149.351 353.33 148.882C353.902 148.37 354.728 147.508 355.477 146.179C355.216 147.002 355.119 147.698 355.08 148.192C355.002 149.199 354.943 150.022 355.451 150.782C355.607 151.016 355.945 151.529 356.563 151.637C357.279 151.757 357.845 151.231 357.904 151.181C358.613 150.51 358.483 149.402 358.365 148.427C358.307 147.92 358.164 147.173 357.78 146.312C358.001 146.654 358.372 147.167 358.944 147.673C359.602 148.262 360.467 149.041 361.554 148.946C361.671 148.939 362.673 148.838 362.972 148.173C363.271 147.521 362.699 146.755 362.464 146.438C361.963 145.767 361.319 145.451 360.473 145.052C359.764 144.716 359.14 144.52 358.704 144.406C360.031 144.615 361.059 144.431 361.658 144.273C362.36 144.089 363.063 143.893 363.538 143.26C363.636 143.127 364.202 142.373 363.896 141.696C363.596 141.038 362.686 140.924 362.432 140.892C362.094 140.848 361.703 140.873 360.597 141.272C360.051 141.468 359.315 141.766 358.47 142.19C358.723 141.886 359.068 141.443 359.426 140.86C360.096 139.759 360.597 138.948 360.35 138.1C360.317 137.998 360.096 137.264 359.413 137.011C358.847 136.802 358.307 137.049 358.177 137.112C357.448 137.447 357.155 138.157 356.804 139.049C356.609 139.55 356.362 140.316 356.277 141.316L356.264 141.322Z" fill="#E42353"/>
<path d="M356.414 145.609C357.355 145.609 358.118 144.866 358.118 143.95C358.118 143.034 357.355 142.291 356.414 142.291C355.472 142.291 354.709 143.034 354.709 143.95C354.709 144.866 355.472 145.609 356.414 145.609Z" fill="white"/>
<path d="M351.846 154.67C352.725 154.005 353.635 153.884 353.993 153.859C353.967 154.195 353.883 154.739 353.525 155.303C353.388 155.518 352.783 156.398 351.625 156.658C351.137 156.765 350.721 156.721 350.467 156.677C350.564 156.347 350.883 155.404 351.846 154.676V154.67Z" fill="#1CA466"/>
<path d="M350.024 153.505C349.471 152.561 348.671 152.118 348.352 151.966C348.242 152.283 348.112 152.827 348.229 153.473C348.274 153.726 348.489 154.765 349.465 155.423C349.875 155.702 350.278 155.816 350.532 155.866C350.571 155.531 350.636 154.537 350.031 153.505H350.024Z" fill="#1CA466"/>
<path d="M350.037 162.647C349.484 161.704 348.684 161.261 348.365 161.109C348.255 161.425 348.125 161.97 348.242 162.616C348.287 162.869 348.502 163.907 349.478 164.566C349.888 164.845 350.291 164.959 350.545 165.009C350.584 164.674 350.649 163.68 350.044 162.647H350.037Z" fill="#1CA466"/>
<path d="M216.145 209.255C216.073 209.255 216.002 209.242 215.93 209.217C212.963 208.204 210.4 206.684 208.305 204.702C206.828 203.303 205.982 202.049 205.234 200.935C204.434 199.751 203.75 198.725 202.462 197.712C200.23 195.958 197.166 195.059 193.353 195.046C192.995 195.046 192.709 194.761 192.709 194.42C192.709 194.071 192.995 193.793 193.353 193.793C197.465 193.805 200.803 194.799 203.269 196.737C204.713 197.87 205.488 199.023 206.307 200.245C207.056 201.353 207.823 202.499 209.196 203.797C211.155 205.652 213.562 207.07 216.347 208.026C216.685 208.14 216.861 208.501 216.743 208.824C216.652 209.084 216.399 209.242 216.138 209.242L216.145 209.255Z" fill="#1CA466"/>
<path d="M190.848 192.083C190.185 190.943 189.957 189.943 189.866 189.304C189.755 188.525 189.664 187.847 190.107 187.284C190.139 187.239 190.647 186.619 191.336 186.657C192.137 186.701 192.618 187.613 192.859 188.075C193.601 189.487 193.34 190.969 193.145 191.697C193.288 191.368 193.516 190.899 193.848 190.367C194.18 189.829 194.42 189.437 194.856 189.025C195.26 188.645 195.78 188.145 196.548 188.094C196.743 188.082 197.192 188.05 197.569 188.335C198.103 188.74 198.07 189.449 198.064 189.576C198.044 190.051 197.823 190.405 197.647 190.652C196.834 191.792 195.539 192.71 194.928 193.109C195.722 192.811 196.405 192.71 196.88 192.672C197.498 192.628 198.428 192.564 199.391 193.027C199.808 193.229 200.204 193.413 200.367 193.831C200.614 194.451 200.217 195.224 199.684 195.604C199.313 195.869 198.884 195.933 198.168 195.92C197.387 195.901 196.19 195.775 194.726 195.249C195.474 195.705 196.021 196.167 196.385 196.515C197.12 197.224 197.719 197.813 197.856 198.706C197.895 198.985 197.986 199.593 197.595 200.055C197.14 200.599 196.353 200.568 196.275 200.561C195.292 200.504 194.635 199.586 194.069 198.776C193.77 198.358 193.379 197.699 193.087 196.8C193.152 197.199 193.21 197.82 193.126 198.573C193.028 199.434 192.898 200.574 192.013 201.201C191.922 201.264 191.102 201.834 190.419 201.524C189.755 201.22 189.664 200.276 189.632 199.89C189.554 199.067 189.833 198.415 190.204 197.573C190.517 196.87 190.855 196.319 191.109 195.958C190.25 196.965 189.345 197.484 188.792 197.744C188.135 198.054 187.478 198.352 186.691 198.174C186.528 198.136 185.591 197.934 185.37 197.224C185.149 196.534 185.76 195.869 185.936 195.68C186.164 195.433 186.47 195.198 187.576 194.799C188.122 194.597 188.877 194.35 189.801 194.135C189.404 194.065 188.844 193.951 188.187 193.742C186.938 193.343 186.014 193.046 185.63 192.248C185.585 192.153 185.26 191.45 185.604 190.823C185.891 190.304 186.47 190.146 186.606 190.108C187.381 189.899 188.077 190.247 188.949 190.69C189.43 190.937 190.139 191.368 190.874 192.064L190.848 192.083Z" fill="#E42353"/>
<path d="M192.508 195.825C193.449 195.825 194.212 195.083 194.212 194.166C194.212 193.25 193.449 192.507 192.508 192.507C191.566 192.507 190.803 193.25 190.803 194.166C190.803 195.083 191.566 195.825 192.508 195.825Z" fill="white"/>
<path d="M203.178 199.339C202.065 199.396 201.298 199.89 201.011 200.099C201.252 200.333 201.694 200.694 202.338 200.891C202.586 200.967 203.64 201.245 204.681 200.701C205.123 200.466 205.409 200.169 205.572 199.972C205.279 199.789 204.401 199.282 203.178 199.339Z" fill="#1CA466"/>
<path d="M203.77 197.301C203.555 196.237 203.861 195.388 203.998 195.065C204.29 195.236 204.759 195.559 205.11 196.123C205.247 196.338 205.78 197.263 205.494 198.383C205.37 198.858 205.143 199.2 204.986 199.403C204.733 199.175 204.011 198.466 203.77 197.301Z" fill="#1CA466"/>
<path d="M209.918 204.208C209.704 203.144 210.009 202.296 210.146 201.973C210.439 202.144 210.907 202.467 211.259 203.031C211.395 203.246 211.929 204.17 211.642 205.291C211.519 205.766 211.291 206.108 211.135 206.31C210.881 206.082 210.159 205.373 209.918 204.208Z" fill="#1CA466"/>
<path d="M160.263 338.636C160.113 338.636 159.963 338.585 159.84 338.484C159.573 338.256 159.54 337.863 159.775 337.597C162.475 334.577 165.428 332.766 168.545 332.222C170.373 331.899 171.779 332.082 173.262 332.272C174.609 332.45 176.008 332.627 177.914 332.469C180.634 332.234 183.314 331.392 185.878 329.961C186.183 329.79 186.58 329.892 186.756 330.195C186.932 330.493 186.828 330.879 186.515 331.05C183.789 332.57 180.933 333.469 178.025 333.716C175.975 333.887 174.44 333.691 173.086 333.513C171.642 333.323 170.399 333.165 168.766 333.45C165.942 333.944 163.242 335.615 160.737 338.414C160.607 338.553 160.432 338.629 160.25 338.629L160.263 338.636Z" fill="#1CA466"/>
<path d="M156.801 338.319C155.48 338.059 154.55 337.578 153.997 337.23C153.32 336.806 152.735 336.426 152.585 335.736C152.572 335.685 152.416 334.906 152.904 334.419C153.464 333.855 154.485 334.102 155.006 334.222C156.587 334.596 157.569 335.761 158.011 336.375C157.849 336.052 157.634 335.584 157.439 334.988C157.237 334.393 157.088 333.956 157.055 333.368C157.022 332.823 156.977 332.114 157.439 331.512C157.556 331.36 157.829 331.012 158.298 330.917C158.955 330.791 159.495 331.278 159.586 331.367C159.944 331.69 160.074 332.089 160.152 332.38C160.51 333.722 160.373 335.273 160.289 335.989C160.575 335.21 160.946 334.64 161.225 334.267C161.59 333.779 162.156 333.057 163.145 332.646C163.574 332.468 163.978 332.304 164.407 332.449C165.045 332.671 165.39 333.469 165.337 334.115C165.298 334.564 165.077 334.919 164.589 335.438C164.062 336.002 163.184 336.806 161.818 337.534C162.663 337.274 163.379 337.179 163.887 337.141C164.921 337.059 165.767 337.002 166.548 337.496C166.788 337.648 167.322 337.977 167.426 338.572C167.55 339.269 167.016 339.82 166.958 339.876C166.274 340.567 165.129 340.446 164.127 340.339C163.607 340.282 162.839 340.149 161.948 339.775C162.299 339.99 162.826 340.351 163.353 340.902C163.958 341.535 164.758 342.377 164.674 343.441C164.667 343.555 164.57 344.53 163.88 344.828C163.21 345.119 162.416 344.568 162.097 344.34C161.408 343.859 161.082 343.226 160.672 342.403C160.328 341.713 160.126 341.105 160.002 340.681C160.224 341.972 160.035 342.973 159.879 343.555C159.69 344.239 159.495 344.923 158.844 345.385C158.708 345.48 157.94 346.031 157.237 345.733C156.561 345.442 156.437 344.556 156.404 344.309C156.359 343.979 156.385 343.599 156.788 342.523C156.99 341.991 157.289 341.276 157.725 340.453C157.413 340.7 156.957 341.042 156.365 341.383C155.24 342.042 154.4 342.529 153.529 342.289C153.424 342.257 152.67 342.042 152.41 341.377C152.195 340.826 152.449 340.301 152.507 340.174C152.845 339.465 153.574 339.18 154.492 338.832C154.999 338.642 155.793 338.401 156.814 338.313L156.801 338.319Z" fill="#E42353"/>
<path d="M159.508 340.117C160.449 340.117 161.213 339.374 161.213 338.458C161.213 337.542 160.449 336.799 159.508 336.799C158.566 336.799 157.803 337.542 157.803 338.458C157.803 339.374 158.566 340.117 159.508 340.117Z" fill="white"/>
<path d="M170.504 333.982C169.82 334.836 169.703 335.729 169.677 336.077C170.022 336.052 170.582 335.964 171.161 335.615C171.382 335.482 172.286 334.893 172.547 333.766C172.657 333.292 172.612 332.88 172.566 332.639C172.228 332.734 171.265 333.051 170.51 333.988L170.504 333.982Z" fill="#1CA466"/>
<path d="M169.3 332.209C168.33 331.671 167.875 330.892 167.712 330.582C168.037 330.474 168.597 330.347 169.261 330.455C169.521 330.499 170.588 330.702 171.265 331.652C171.551 332.051 171.674 332.443 171.727 332.69C171.382 332.728 170.36 332.798 169.3 332.209Z" fill="#1CA466"/>
<path d="M178.695 332.203C177.725 331.664 177.27 330.886 177.107 330.575C177.432 330.468 177.992 330.341 178.656 330.449C178.916 330.493 179.983 330.696 180.66 331.645C180.946 332.044 181.07 332.437 181.122 332.684C180.777 332.722 179.755 332.791 178.695 332.203Z" fill="#1CA466"/>
<path d="M434.762 259.667C434.586 259.667 434.411 259.598 434.281 259.458C434.04 259.199 434.066 258.806 434.326 258.572C436.662 256.527 439.264 255.07 442.056 254.235C444.027 253.646 445.562 253.526 446.922 253.424C448.373 253.31 449.629 253.215 451.158 252.601C453.812 251.537 456.09 249.353 457.937 246.105C458.107 245.801 458.503 245.693 458.809 245.858C459.121 246.023 459.232 246.409 459.063 246.706C457.072 250.214 454.58 252.582 451.646 253.753C449.928 254.437 448.516 254.551 447.02 254.665C445.667 254.767 444.261 254.881 442.426 255.425C439.817 256.204 437.378 257.578 435.178 259.496C435.055 259.604 434.899 259.655 434.749 259.655L434.762 259.667Z" fill="#1CA466"/>
<path d="M461.822 245.396C463.168 245.377 464.177 245.662 464.795 245.89C465.55 246.168 466.207 246.421 466.5 247.067C466.519 247.118 466.844 247.846 466.474 248.416C466.044 249.081 464.997 249.049 464.463 249.036C462.837 248.992 461.626 248.055 461.06 247.542C461.288 247.827 461.6 248.245 461.919 248.777C462.245 249.321 462.479 249.714 462.648 250.284C462.798 250.809 462.999 251.493 462.674 252.171C462.596 252.342 462.401 252.74 461.965 252.924C461.347 253.184 460.722 252.816 460.605 252.747C460.189 252.5 459.974 252.145 459.831 251.873C459.193 250.632 458.991 249.087 458.92 248.372C458.809 249.188 458.568 249.828 458.373 250.246C458.12 250.797 457.723 251.62 456.851 252.221C456.467 252.481 456.109 252.728 455.66 252.671C454.984 252.582 454.476 251.873 454.391 251.234C454.333 250.79 454.476 250.391 454.834 249.79C455.224 249.131 455.914 248.169 457.092 247.175C456.324 247.599 455.641 247.84 455.159 247.979C454.17 248.27 453.35 248.498 452.479 248.182C452.205 248.08 451.62 247.865 451.386 247.308C451.112 246.656 451.522 246.004 451.561 245.94C452.082 245.123 453.227 245.009 454.229 244.915C454.749 244.864 455.53 244.839 456.48 245.022C456.09 244.883 455.498 244.642 454.866 244.205C454.138 243.705 453.175 243.047 453.032 241.996C453.019 241.882 452.902 240.913 453.507 240.482C454.099 240.058 454.99 240.438 455.354 240.596C456.135 240.926 456.591 241.476 457.17 242.198C457.658 242.8 457.983 243.357 458.191 243.743C457.697 242.527 457.664 241.508 457.697 240.907C457.736 240.197 457.781 239.495 458.315 238.906C458.425 238.785 459.063 238.089 459.805 238.235C460.533 238.38 460.839 239.222 460.924 239.457C461.041 239.773 461.099 240.14 460.93 241.28C460.846 241.844 460.709 242.603 460.462 243.496C460.709 243.192 461.086 242.768 461.594 242.306C462.557 241.432 463.266 240.786 464.17 240.843C464.281 240.85 465.068 240.907 465.465 241.508C465.797 242.002 465.66 242.572 465.628 242.705C465.446 243.465 464.795 243.895 463.975 244.421C463.52 244.712 462.798 245.111 461.815 245.402L461.822 245.396Z" fill="#E42353"/>
<path d="M459.148 247.472C460.089 247.472 460.852 246.73 460.852 245.814C460.852 244.897 460.089 244.155 459.148 244.155C458.206 244.155 457.443 244.897 457.443 245.814C457.443 246.73 458.206 247.472 459.148 247.472Z" fill="white"/>
<path d="M449.362 252.437C449.844 251.461 449.766 250.569 449.72 250.22C449.388 250.315 448.855 250.518 448.373 250.974C448.185 251.151 447.43 251.911 447.417 253.07C447.417 253.557 447.547 253.943 447.644 254.178C447.95 254.019 448.829 253.513 449.362 252.443V252.437Z" fill="#1CA466"/>
<path d="M450.917 253.925C451.978 254.254 452.596 254.919 452.817 255.191C452.524 255.362 452.004 255.602 451.327 255.628C451.067 255.64 449.98 255.653 449.108 254.868C448.737 254.539 448.542 254.178 448.432 253.95C448.763 253.842 449.746 253.564 450.911 253.925H450.917Z" fill="#1CA466"/>
<path d="M441.73 255.849C442.791 256.179 443.409 256.843 443.63 257.116C443.337 257.287 442.817 257.527 442.14 257.553C441.88 257.565 440.793 257.578 439.922 256.793C439.551 256.463 439.355 256.103 439.245 255.875C439.577 255.767 440.559 255.488 441.724 255.849H441.73Z" fill="#1CA466"/>
<path d="M345.984 168.181C345.912 168.181 345.841 168.169 345.763 168.143C345.431 168.023 345.255 167.668 345.372 167.339C345.951 165.782 346.212 164.167 346.16 162.546C346.042 159.203 344.572 156.854 343.869 155.721C342.51 153.536 340.577 151.662 338.281 150.288C337.975 150.104 337.884 149.718 338.066 149.427C338.254 149.129 338.645 149.041 338.951 149.218C341.417 150.693 343.499 152.713 344.969 155.062C345.73 156.284 347.318 158.823 347.448 162.495C347.513 164.275 347.22 166.047 346.589 167.757C346.491 168.01 346.244 168.169 345.984 168.169V168.181Z" fill="#1CA466"/>
<path d="M339.341 150.389C338.964 150.37 338.437 150.282 337.916 149.978C336.316 149.053 336.25 147.021 336.25 146.837C336.634 146.901 337.291 147.072 337.923 147.559C339.23 148.572 339.328 150.123 339.341 150.389Z" fill="#1CA466"/>
<path d="M342.607 150.313C342.503 149.212 341.722 148.566 341.481 148.382C341.26 148.692 340.922 149.262 340.87 149.984C340.772 151.333 341.755 152.175 341.995 152.371C342.191 152.105 342.698 151.314 342.607 150.313Z" fill="#1CA466"/>
<path d="M344.689 150.807C344.501 150.953 343.616 151.668 343.447 152.935C343.297 154.055 343.798 154.891 343.948 155.113C344.188 154.954 344.884 154.461 345.184 153.543C345.646 152.131 344.793 150.94 344.689 150.807Z" fill="#1CA466"/>
<path d="M347.116 154.467C346.791 154.682 346.296 155.075 345.951 155.727C345.132 157.278 345.912 158.88 346.017 159.095C346.27 158.95 347.116 158.412 347.493 157.341C348.007 155.879 347.22 154.632 347.11 154.467H347.116Z" fill="#1CA466"/>
<path d="M342.633 158.646C342.724 158.829 343.284 159.925 344.611 160.317C345.684 160.634 346.576 160.298 346.83 160.191C346.654 159.925 346.036 159.07 344.832 158.69C343.83 158.367 342.971 158.557 342.633 158.646Z" fill="#1CA466"/>
<path d="M341.254 154.765C341.508 155.214 342.321 156.518 343.798 157.196C344.728 157.626 345.529 157.62 345.971 157.576C345.646 157.076 344.832 155.949 343.466 155.277C342.542 154.821 341.735 154.758 341.254 154.758V154.765Z" fill="#1CA466"/>
<path d="M337.662 153.087C338.001 153.296 338.853 153.751 340.031 153.739C341.052 153.732 341.813 153.372 342.158 153.175C341.904 152.985 340.961 152.327 339.621 152.403C338.645 152.46 337.949 152.878 337.656 153.08L337.662 153.087Z" fill="#1CA466"/>
<path d="M335.75 150.814C336.114 151.048 336.712 151.377 337.526 151.523C338.892 151.77 339.992 151.345 340.415 151.155C339.927 150.915 339.042 150.554 337.884 150.516C336.966 150.484 336.224 150.662 335.75 150.814Z" fill="#1CA466"/>
<path d="M211.037 212.287C210.751 212.287 210.491 212.104 210.413 211.819C209.983 210.217 209.261 208.742 208.272 207.437C206.229 204.746 203.659 203.613 202.417 203.069C200.022 202.018 197.342 201.536 194.655 201.669C194.303 201.688 193.998 201.422 193.978 201.074C193.959 200.726 194.232 200.435 194.59 200.416C197.478 200.27 200.374 200.796 202.95 201.929C204.29 202.518 207.069 203.74 209.313 206.697C210.4 208.134 211.187 209.748 211.662 211.509C211.753 211.844 211.545 212.186 211.2 212.275C211.148 212.287 211.09 212.294 211.037 212.294V212.287Z" fill="#1CA466"/>
<path d="M195.591 201.163C195.266 201.353 194.785 201.568 194.18 201.606C192.325 201.726 191.089 200.08 190.979 199.934C191.336 199.776 191.974 199.555 192.774 199.612C194.44 199.726 195.429 200.954 195.591 201.163Z" fill="#1CA466"/>
<path d="M198.239 199.308C197.511 198.459 196.496 198.358 196.19 198.339C196.19 198.719 196.242 199.371 196.619 199.991C197.322 201.156 198.623 201.308 198.936 201.34C198.936 201.011 198.903 200.08 198.239 199.308Z" fill="#1CA466"/>
<path d="M200.243 198.567C200.172 198.795 199.86 199.871 200.458 201.004C200.985 202.011 201.883 202.423 202.137 202.53C202.247 202.271 202.527 201.479 202.241 200.555C201.805 199.137 200.406 198.624 200.243 198.567Z" fill="#1CA466"/>
<path d="M204.369 200.245C204.225 200.599 204.05 201.201 204.141 201.923C204.369 203.651 205.943 204.544 206.158 204.664C206.281 204.405 206.672 203.499 206.353 202.404C205.924 200.916 204.551 200.321 204.369 200.245Z" fill="#1CA466"/>
<path d="M203.1 206.158C203.282 206.26 204.381 206.855 205.702 206.45C206.769 206.12 207.316 205.348 207.459 205.126C207.16 205.006 206.151 204.639 204.941 204.987C203.926 205.278 203.327 205.905 203.106 206.158H203.1Z" fill="#1CA466"/>
<path d="M199.703 203.721C200.172 203.949 201.603 204.582 203.217 204.329C204.232 204.17 204.889 203.727 205.234 203.448C204.674 203.214 203.353 202.733 201.831 202.929C200.803 203.062 200.1 203.448 199.71 203.721H199.703Z" fill="#1CA466"/>
<path d="M195.774 204.316C196.171 204.297 197.14 204.208 198.103 203.55C198.942 202.98 199.359 202.264 199.534 201.916C199.215 201.897 198.057 201.872 196.997 202.676C196.223 203.259 195.897 203.987 195.774 204.316Z" fill="#1CA466"/>
<path d="M192.872 203.487C193.308 203.487 193.997 203.423 194.752 203.094C196.021 202.543 196.678 201.593 196.919 201.201C196.379 201.27 195.442 201.46 194.459 202.062C193.685 202.543 193.171 203.094 192.872 203.487Z" fill="#1CA466"/>
<path d="M223.859 188.998L214.68 197.188C213.748 198.02 213.684 199.429 214.538 200.335C215.391 201.241 216.839 201.301 217.771 200.469L226.95 192.278C227.882 191.447 227.946 190.038 227.092 189.132C226.239 188.226 224.791 188.166 223.859 188.998Z" fill="#1CA466"/>
<path d="M214.388 200.118C216.041 200.118 217.381 198.814 217.381 197.206C217.381 195.597 216.041 194.293 214.388 194.293C212.735 194.293 211.395 195.597 211.395 197.206C211.395 198.814 212.735 200.118 214.388 200.118Z" fill="#1CA466"/>
<path d="M223.477 193.93C225.919 191.751 226.615 188.622 225.031 186.942C223.448 185.262 220.185 185.666 217.743 187.845C215.301 190.024 214.605 193.153 216.189 194.833C217.772 196.513 221.035 196.109 223.477 193.93Z" fill="#1CA466"/>
<path d="M217.566 195.333C218.283 194.693 218.19 193.457 217.357 192.573C216.524 191.689 215.267 191.491 214.549 192.132C213.831 192.772 213.925 194.008 214.758 194.892C215.591 195.776 216.848 195.974 217.566 195.333Z" fill="#1CA466"/>
<path d="M225.82 190C226.599 190 227.231 189.385 227.231 188.626C227.231 187.867 226.599 187.252 225.82 187.252C225.04 187.252 224.408 187.867 224.408 188.626C224.408 189.385 225.04 190 225.82 190Z" fill="#1CA466"/>
<path opacity="0.71" d="M290.447 151.871H228.214C223.237 151.871 219.203 155.796 219.203 160.637C219.203 165.478 223.237 169.403 228.214 169.403H290.447C295.423 169.403 299.458 165.478 299.458 160.637C299.458 155.796 295.423 151.871 290.447 151.871Z" fill="white"/>
<path opacity="0.71" d="M395.92 178.078H365.718C361.955 178.078 358.906 181.046 358.906 184.707C358.906 188.368 361.955 191.336 365.718 191.336H395.92C399.682 191.336 402.732 188.368 402.732 184.707C402.732 181.046 399.682 178.078 395.92 178.078Z" fill="white"/>
<path opacity="0.71" d="M219.678 309.978H168.649C164.513 309.978 161.16 313.241 161.16 317.266C161.16 321.291 164.513 324.554 168.649 324.554H219.678C223.814 324.554 227.166 321.291 227.166 317.266C227.166 313.241 223.814 309.978 219.678 309.978Z" fill="white"/>
<path opacity="0.71" d="M468.621 226.097H417.592C413.456 226.097 410.103 229.36 410.103 233.385C410.103 237.409 413.456 240.672 417.592 240.672H468.621C472.757 240.672 476.109 237.409 476.109 233.385C476.109 229.36 472.757 226.097 468.621 226.097Z" fill="white"/>
<path opacity="0.71" d="M368.476 182.503H309.119C304.107 182.503 300.043 186.458 300.043 191.336C300.043 196.214 304.107 200.169 309.119 200.169H368.476C373.489 200.169 377.552 196.214 377.552 191.336C377.552 186.458 373.489 182.503 368.476 182.503Z" fill="white"/>
<path opacity="0.71" d="M248.884 246.301H189.528C184.515 246.301 180.451 250.256 180.451 255.134C180.451 260.012 184.515 263.966 189.528 263.966H248.884C253.897 263.966 257.961 260.012 257.961 255.134C257.961 250.256 253.897 246.301 248.884 246.301Z" fill="white"/>
<path opacity="0.71" d="M381.482 294.675H317.246C313.257 294.675 310.024 297.82 310.024 301.7C310.024 305.58 313.257 308.725 317.246 308.725H381.482C385.471 308.725 388.704 305.58 388.704 301.7C388.704 297.82 385.471 294.675 381.482 294.675Z" fill="white"/>
<path opacity="0.71" d="M408.242 305.939H356.797C355.216 305.939 353.935 307.186 353.935 308.725C353.935 310.263 355.216 311.511 356.797 311.511H408.242C409.823 311.511 411.105 310.263 411.105 308.725C411.105 307.186 409.823 305.939 408.242 305.939Z" fill="white"/>
<path opacity="0.71" d="M245.963 161.919H194.518C192.937 161.919 191.655 163.166 191.655 164.705C191.655 166.244 192.937 167.491 194.518 167.491H245.963C247.544 167.491 248.826 166.244 248.826 164.705C248.826 163.166 247.544 161.919 245.963 161.919Z" fill="white"/>
<path opacity="0.71" d="M306.354 439.41H361.052C366.029 439.41 370.063 435.485 370.063 430.644C370.063 425.803 366.029 421.878 361.052 421.878H306.354C301.377 421.878 297.343 425.803 297.343 430.644C297.343 435.485 301.377 439.41 306.354 439.41Z" fill="white"/>
<path opacity="0.71" d="M210.588 413.197H236.672C240.434 413.197 243.484 410.229 243.484 406.568C243.484 402.907 240.434 399.939 236.672 399.939H210.588C206.826 399.939 203.776 402.907 203.776 406.568C203.776 410.229 206.826 413.197 210.588 413.197Z" fill="white"/>
<path opacity="0.71" d="M370.343 281.302H415.171C419.307 281.302 422.66 278.04 422.66 274.015C422.66 269.99 419.307 266.727 415.171 266.727H370.343C366.207 266.727 362.855 269.99 362.855 274.015C362.855 278.04 366.207 281.302 370.343 281.302Z" fill="white"/>
<path opacity="0.71" d="M144.771 365.178H189.599C193.735 365.178 197.088 361.915 197.088 357.89C197.088 353.865 193.735 350.602 189.599 350.602H144.771C140.635 350.602 137.282 353.865 137.282 357.89C137.282 361.915 140.635 365.178 144.771 365.178Z" fill="white"/>
<path opacity="0.71" d="M235.657 408.771H287.74C292.752 408.771 296.816 404.817 296.816 399.939C296.816 395.06 292.752 391.106 287.74 391.106H235.657C230.644 391.106 226.581 395.06 226.581 399.939C226.581 404.817 230.644 408.771 235.657 408.771Z" fill="white"/>
<path opacity="0.71" d="M344.025 344.974H396.108C401.121 344.974 405.184 341.019 405.184 336.141C405.184 331.263 401.121 327.308 396.108 327.308H344.025C339.013 327.308 334.949 331.263 334.949 336.141C334.949 341.019 339.013 344.974 344.025 344.974Z" fill="white"/>
<path opacity="0.71" d="M223.698 296.593H280.55C284.539 296.593 287.772 293.448 287.772 289.568C287.772 285.689 284.539 282.543 280.55 282.543H223.698C219.71 282.543 216.477 285.689 216.477 289.568C216.477 293.448 219.71 296.593 223.698 296.593Z" fill="white"/>
<path opacity="0.71" d="M199.046 285.336H245.124C246.705 285.336 247.986 284.088 247.986 282.55C247.986 281.011 246.705 279.764 245.124 279.764H199.046C197.465 279.764 196.183 281.011 196.183 282.55C196.183 284.088 197.465 285.336 199.046 285.336Z" fill="white"/>
<path opacity="0.71" d="M346.088 429.355H392.165C393.746 429.355 395.028 428.108 395.028 426.569C395.028 425.031 393.746 423.784 392.165 423.784H346.088C344.507 423.784 343.225 425.031 343.225 426.569C343.225 428.108 344.507 429.355 346.088 429.355Z" fill="white"/>
</g>
<defs>
<clipPath id="clip0_687_1328">
<rect width="619" height="568.563" fill="white"/>
</clipPath>
</defs>
</svg>
